<svg width="24" height="22" viewBox="0 0 24 22" fill="none" xmlns="http://www.w3.org/2000/svg">
<path fill-rule="evenodd" clip-rule="evenodd" d="M2.09195 13.5451C2.5701 13.5451 2.95772 13.9002 2.95772 14.3382C2.95772 15.8559 2.95956 16.9144 3.07679 17.7131C3.19067 18.4889 3.39897 18.8998 3.71846 19.1925C4.03794 19.4851 4.48649 19.6759 5.33353 19.7802C6.20547 19.8876 7.36111 19.8893 9.0181 19.8893H15.9442C17.6012 19.8893 18.7568 19.8876 19.6288 19.7802C20.4758 19.6759 20.9244 19.4851 21.2439 19.1925C21.5634 18.8998 21.7717 18.4889 21.8855 17.7131C22.0028 16.9144 22.0046 15.8559 22.0046 14.3382C22.0046 13.9002 22.3922 13.5451 22.8704 13.5451C23.3485 13.5451 23.7362 13.9002 23.7362 14.3382V14.3962C23.7362 15.8422 23.7362 17.0077 23.6016 17.9244C23.4619 18.8762 23.1631 19.6775 22.4682 20.314C21.7734 20.9504 20.8986 21.2242 19.8595 21.3521C18.8587 21.4754 17.5863 21.4754 16.0076 21.4753H8.95476C7.37607 21.4754 6.10359 21.4754 5.1028 21.3521C4.06375 21.2242 3.18889 20.9504 2.49406 20.314C1.79924 19.6775 1.50039 18.8762 1.36069 17.9244C1.22614 17.0077 1.22616 15.8422 1.22618 14.3962C1.22618 14.3769 1.22618 14.3575 1.22618 14.3382C1.22618 13.9002 1.6138 13.5451 2.09195 13.5451Z" fill="white"/>
<path fill-rule="evenodd" clip-rule="evenodd" d="M0.984377 14.3382C0.984377 13.7471 1.50067 13.3033 2.09195 13.3033C2.68323 13.3033 3.19952 13.7471 3.19952 14.3382C3.19952 15.8635 3.20198 16.901 3.31603 17.678C3.42535 18.4228 3.61819 18.7727 3.88179 19.0142C4.14838 19.2584 4.53937 19.4388 5.36308 19.5402C6.21677 19.6454 7.35471 19.6475 9.0181 19.6475H15.9442C17.6076 19.6475 18.7455 19.6454 19.5992 19.5402C20.4229 19.4388 20.8139 19.2584 21.0805 19.0142C21.3441 18.7727 21.537 18.4227 21.6463 17.678C21.7604 16.901 21.7628 15.8635 21.7628 14.3382C21.7628 13.7471 22.2791 13.3033 22.8704 13.3033C23.4617 13.3033 23.978 13.7471 23.978 14.3382V14.4146C23.978 15.8455 23.978 17.0254 23.8409 17.9595C23.6967 18.9421 23.3824 19.8045 22.6316 20.4923C21.8837 21.1773 20.9512 21.4613 19.8891 21.5921C18.8735 21.7172 17.589 21.7172 16.0232 21.7171H8.93912C7.37331 21.7172 6.08877 21.7172 5.07324 21.5921C4.01111 21.4613 3.07856 21.1773 2.33074 20.4923C1.57988 19.8045 1.26567 18.9421 1.12145 17.9595C0.984328 17.0254 0.98435 15.8454 0.984376 14.4145L0.984377 14.3382ZM2.09195 13.7869C1.72693 13.7869 1.46799 14.0533 1.46799 14.3382L1.46799 14.3962C1.46796 15.8491 1.46853 16.9941 1.59993 17.8893C1.73511 18.8102 2.01861 19.5505 2.65739 20.1356C3.29922 20.7236 4.11638 20.987 5.13235 21.1121C6.11503 21.2331 7.37028 21.2335 8.95476 21.2335H16.0076C17.592 21.2335 18.8473 21.2331 19.83 21.1121C20.8459 20.987 21.6631 20.7236 22.3049 20.1357C22.9437 19.5505 23.2272 18.8102 23.3624 17.8893C23.4938 16.9941 23.4944 15.8491 23.4944 14.3962V14.3382C23.4944 14.0533 23.2354 13.7869 22.8704 13.7869C22.5054 13.7869 22.2464 14.0533 22.2464 14.3382C22.2464 15.8483 22.2452 16.9279 22.1248 17.7482C22.0063 18.5551 21.7826 19.0269 21.4072 19.3708C21.0348 19.7119 20.5287 19.913 19.6583 20.0202C18.7681 20.1298 17.5948 20.1311 15.9442 20.1311H9.0181C7.36751 20.1311 6.19417 20.1298 5.30397 20.0202C4.43361 19.913 3.9275 19.7119 3.55513 19.3708C3.17974 19.0269 2.95599 18.5551 2.83755 17.7482C2.71714 16.9279 2.71591 15.8483 2.71591 14.3382C2.71591 14.0533 2.45697 13.7869 2.09195 13.7869Z" fill="white"/>
<path fill-rule="evenodd" clip-rule="evenodd" d="M12.4851 0.858993C12.9633 0.858993 13.3509 1.21404 13.3509 1.65201V13.3551L16.4636 10.2366C16.7862 9.91339 17.3339 9.89093 17.6868 10.1865C18.0396 10.482 18.0642 10.9836 17.7415 11.3068L13.1241 15.9328C12.9601 16.0971 12.7282 16.1907 12.4851 16.1907C12.2421 16.1907 12.0102 16.0971 11.8462 15.9328L7.22874 11.3068C6.9061 10.9836 6.93062 10.482 7.28351 10.1865C7.6364 9.89093 8.18402 9.91339 8.50666 10.2366L11.6194 13.3551V1.65201C11.6194 1.21404 12.007 0.858993 12.4851 0.858993Z" fill="white"/>
<path fill-rule="evenodd" clip-rule="evenodd" d="M11.3776 1.65201C11.3776 1.06095 11.8939 0.617188 12.4851 0.617188C13.0764 0.617188 13.5927 1.06095 13.5927 1.65201V12.7705L16.2925 10.0658C16.7048 9.65273 17.3942 9.62606 17.842 10.0011C18.3021 10.3864 18.337 11.0526 17.9127 11.4777L13.2952 16.1036C13.0835 16.3157 12.7891 16.4325 12.4851 16.4325C12.1812 16.4325 11.8867 16.3157 11.675 16.1036L7.0576 11.4777C6.6333 11.0526 6.66817 10.3864 7.12826 10.0011C7.57606 9.62606 8.26549 9.65273 8.6778 10.0658L11.3776 12.7705V1.65201ZM12.4851 1.1008C12.1201 1.1008 11.8612 1.36712 11.8612 1.65201V13.3551C11.8612 13.4529 11.8022 13.5411 11.7118 13.5785C11.6214 13.6159 11.5173 13.5951 11.4482 13.5259L8.33552 10.4075C8.10256 10.1741 7.69673 10.1558 7.43876 10.3718C7.19307 10.5776 7.1789 10.9146 7.39988 11.136L12.0173 15.762C12.1336 15.8785 12.3029 15.9489 12.4851 15.9489C12.6674 15.9489 12.8366 15.8785 12.953 15.762L17.5704 11.136C17.7914 10.9146 17.7772 10.5776 17.5315 10.3718C17.2735 10.1558 16.8677 10.1741 16.6347 10.4075L13.522 13.5259C13.4529 13.5951 13.3489 13.6159 13.2585 13.5785C13.1681 13.5411 13.1091 13.4529 13.1091 13.3551V1.65201C13.1091 1.36712 12.8502 1.1008 12.4851 1.1008Z" fill="white"/>
</svg>
