<svg width="128" height="128" viewBox="0 0 128 128" fill="none" xmlns="http://www.w3.org/2000/svg">
<path d="M116.111 93.8172C115.95 94.3054 113.437 103.072 107.262 112.087C101.917 119.863 96.39 127.702 87.6611 127.839C79.0771 127.99 76.3301 122.718 66.5294 122.718C56.7411 122.718 53.6639 127.702 45.5514 127.99C37.1649 128.334 30.7115 119.496 25.3464 111.758C14.3816 95.9063 5.93901 66.8381 17.2619 47.3576C22.833 37.6108 32.8465 31.4152 43.7508 31.246C51.9682 31.0907 59.7865 36.8126 64.7775 36.8126C69.9051 36.8126 79.3629 29.889 89.3406 30.9249C93.5183 31.1028 105.204 32.6713 112.732 43.5833C112.14 43.9863 98.7507 51.8878 98.8999 67.9694C99.1011 87.3836 115.93 93.7509 116.111 93.8172ZM82.8113 20.5254C87.3107 15.0369 90.2674 7.49245 89.4895 0C83.0652 0.251979 75.2381 4.2664 70.5862 9.7223C66.4731 14.4824 62.8478 22.1444 63.8588 29.5498C70.9968 29.9834 78.3362 25.8119 82.8113 20.5254Z" fill="white"/>
</svg>
