<svg width="1814" height="700" viewBox="0 0 1814 700" fill="none" xmlns="http://www.w3.org/2000/svg">
<g clip-path="url(#clip0_2406_497)">
<mask id="mask0_2406_497" style="mask-type:luminance" maskUnits="userSpaceOnUse" x="0" y="0" width="1799" height="694">
<path d="M1799 0H0V694H1799V0Z" fill="white"/>
</mask>
<g mask="url(#mask0_2406_497)">
<path d="M31.2344 37.1808C31.2344 38.8242 31.8925 40.4003 33.0639 41.5623C34.2354 42.7244 35.8242 43.3772 37.4809 43.3772C39.1376 43.3772 40.7264 42.7244 41.8979 41.5623C43.0693 40.4003 43.7274 38.8242 43.7274 37.1808C43.7274 35.5374 43.0693 33.9613 41.8979 32.7993C40.7264 31.6372 39.1376 30.9844 37.4809 30.9844C35.8242 30.9844 34.2354 31.6372 33.0639 32.7993C31.8925 33.9613 31.2344 35.5374 31.2344 37.1808V37.1808Z" stroke="white" stroke-opacity="0.3"/>
<path d="M31.2344 111.532C31.2344 113.176 31.8925 114.752 33.0639 115.914C34.2354 117.076 35.8242 117.729 37.4809 117.729C39.1376 117.729 40.7264 117.076 41.8979 115.914C43.0693 114.752 43.7274 113.176 43.7274 111.532C43.7274 109.889 43.0693 108.313 41.8979 107.151C40.7264 105.989 39.1376 105.336 37.4809 105.336C35.8242 105.336 34.2354 105.989 33.0639 107.151C31.8925 108.313 31.2344 109.889 31.2344 111.532V111.532Z" stroke="white" stroke-opacity="0.3"/>
<path d="M44.976 178.453L29.9844 193.325L44.976 178.453Z" stroke="white" stroke-opacity="0.3"/>
<path d="M44.976 252.812L29.9844 267.684L44.976 252.812Z" stroke="white" stroke-opacity="0.3"/>
<path d="M44.976 327.172L29.9844 342.043L44.976 327.172Z" stroke="white" stroke-opacity="0.3"/>
<path d="M31.2344 408.962C31.2344 410.605 31.8925 412.182 33.0639 413.344C34.2354 414.506 35.8242 415.158 37.4809 415.158C39.1376 415.158 40.7264 414.506 41.8979 413.344C43.0693 412.182 43.7274 410.605 43.7274 408.962C43.7274 407.319 43.0693 405.743 41.8979 404.581C40.7264 403.418 39.1376 402.766 37.4809 402.766C35.8242 402.766 34.2354 403.418 33.0639 404.581C31.8925 405.743 31.2344 407.319 31.2344 408.962V408.962Z" stroke="white" stroke-opacity="0.3"/>
<path d="M39.9816 480.844L34.9844 485.801L39.9816 480.844Z" stroke="white" stroke-opacity="0.3"/>
<path d="M39.9816 555.203L34.9844 560.16L39.9816 555.203Z" stroke="white" stroke-opacity="0.3"/>
<path d="M31.2344 632.032C31.2344 633.676 31.8925 635.252 33.0639 636.414C34.2354 637.576 35.8242 638.229 37.4809 638.229C39.1376 638.229 40.7264 637.576 41.8979 636.414C43.0693 635.252 43.7274 633.676 43.7274 632.032C43.7274 630.389 43.0693 628.813 41.8979 627.651C40.7264 626.489 39.1376 625.836 37.4809 625.836C35.8242 625.836 34.2354 626.489 33.0639 627.651C31.8925 628.813 31.2344 630.389 31.2344 632.032V632.032Z" stroke="white" stroke-opacity="0.3"/>
<path d="M114.935 34.7031L109.938 39.6603L114.935 34.7031Z" stroke="white" stroke-opacity="0.3"/>
<path d="M114.935 109.055L109.938 114.012L114.935 109.055Z" stroke="white" stroke-opacity="0.3"/>
<path d="M114.935 183.414L109.938 188.371L114.935 183.414Z" stroke="white" stroke-opacity="0.3"/>
<path d="M119.937 252.812L104.945 267.684L119.937 252.812Z" stroke="white" stroke-opacity="0.3"/>
<path d="M149.919 297.43L74.9609 371.787L149.919 297.43Z" stroke="white" stroke-opacity="0.3" stroke-width="3"/>
<path d="M119.937 401.531L104.945 416.403L119.937 401.531Z" stroke="white" stroke-opacity="0.3"/>
<path d="M114.935 480.844L109.938 485.801L114.935 480.844Z" stroke="white" stroke-opacity="0.3"/>
<path d="M119.937 550.242L104.945 565.114L119.937 550.242Z" stroke="white" stroke-opacity="0.3"/>
<path d="M108.688 632.038C108.688 633.024 109.082 633.97 109.785 634.667C110.488 635.364 111.441 635.756 112.435 635.756C113.429 635.756 114.383 635.364 115.086 634.667C115.788 633.97 116.183 633.024 116.183 632.038C116.183 631.052 115.788 630.106 115.086 629.409C114.383 628.712 113.429 628.32 112.435 628.32C111.441 628.32 110.488 628.712 109.785 629.409C109.082 630.106 108.688 631.052 108.688 632.038V632.038Z" stroke="white" stroke-opacity="0.3"/>
<path d="M183.648 37.1788C183.648 38.1648 184.043 39.1105 184.746 39.8077C185.449 40.5049 186.402 40.8967 187.396 40.8967C188.39 40.8967 189.344 40.5049 190.047 39.8077C190.749 39.1105 191.144 38.1648 191.144 37.1788C191.144 36.1928 190.749 35.2471 190.047 34.5499C189.344 33.8526 188.39 33.4609 187.396 33.4609C186.402 33.4609 185.449 33.8526 184.746 34.5499C184.043 35.2471 183.648 36.1928 183.648 37.1788V37.1788Z" stroke="white" stroke-opacity="0.3"/>
<path d="M194.89 104.102L179.898 118.973L194.89 104.102Z" stroke="white" stroke-opacity="0.3"/>
<path d="M183.648 185.89C183.648 186.876 184.043 187.821 184.746 188.519C185.449 189.216 186.402 189.608 187.396 189.608C188.39 189.608 189.344 189.216 190.047 188.519C190.749 187.821 191.144 186.876 191.144 185.89C191.144 184.904 190.749 183.958 190.047 183.261C189.344 182.564 188.39 182.172 187.396 182.172C186.402 182.172 185.449 182.564 184.746 183.261C184.043 183.958 183.648 184.904 183.648 185.89V185.89Z" stroke="white" stroke-opacity="0.3"/>
<path d="M181.148 260.251C181.148 261.895 181.807 263.471 182.978 264.633C184.149 265.795 185.738 266.448 187.395 266.448C189.052 266.448 190.64 265.795 191.812 264.633C192.983 263.471 193.641 261.895 193.641 260.251C193.641 258.608 192.983 257.032 191.812 255.87C190.64 254.708 189.052 254.055 187.395 254.055C185.738 254.055 184.149 254.708 182.978 255.87C181.807 257.032 181.148 258.608 181.148 260.251V260.251Z" stroke="white" stroke-opacity="0.3"/>
<path d="M181.148 334.603C181.148 336.246 181.807 337.822 182.978 338.984C184.149 340.146 185.738 340.799 187.395 340.799C189.052 340.799 190.64 340.146 191.812 338.984C192.983 337.822 193.641 336.246 193.641 334.603C193.641 332.959 192.983 331.383 191.812 330.221C190.64 329.059 189.052 328.406 187.395 328.406C185.738 328.406 184.149 329.059 182.978 330.221C181.807 331.383 181.148 332.959 181.148 334.603V334.603Z" stroke="white" stroke-opacity="0.3"/>
<path d="M181.148 408.962C181.148 410.605 181.807 412.182 182.978 413.344C184.149 414.506 185.738 415.158 187.395 415.158C189.052 415.158 190.64 414.506 191.812 413.344C192.983 412.182 193.641 410.605 193.641 408.962C193.641 407.319 192.983 405.743 191.812 404.581C190.64 403.418 189.052 402.766 187.395 402.766C185.738 402.766 184.149 403.418 182.978 404.581C181.807 405.743 181.148 407.319 181.148 408.962V408.962Z" stroke="white" stroke-opacity="0.3"/>
<path d="M181.148 483.321C181.148 484.965 181.807 486.541 182.978 487.703C184.149 488.865 185.738 489.518 187.395 489.518C189.052 489.518 190.64 488.865 191.812 487.703C192.983 486.541 193.641 484.965 193.641 483.321C193.641 481.678 192.983 480.102 191.812 478.94C190.64 477.778 189.052 477.125 187.395 477.125C185.738 477.125 184.149 477.778 182.978 478.94C181.807 480.102 181.148 481.678 181.148 483.321V483.321Z" stroke="white" stroke-opacity="0.3"/>
<path d="M194.89 550.242L179.898 565.114L194.89 550.242Z" stroke="white" stroke-opacity="0.3"/>
<path d="M194.89 624.602L179.898 639.473L194.89 624.602Z" stroke="white" stroke-opacity="0.3"/>
<path d="M256.109 37.1808C256.109 38.8242 256.767 40.4003 257.939 41.5623C259.11 42.7244 260.699 43.3772 262.356 43.3772C264.013 43.3772 265.601 42.7244 266.773 41.5623C267.944 40.4003 268.602 38.8242 268.602 37.1808C268.602 35.5374 267.944 33.9613 266.773 32.7993C265.601 31.6372 264.013 30.9844 262.356 30.9844C260.699 30.9844 259.11 31.6372 257.939 32.7993C256.767 33.9613 256.109 35.5374 256.109 37.1808V37.1808Z" stroke="white" stroke-opacity="0.3"/>
<path d="M256.109 111.532C256.109 113.176 256.767 114.752 257.939 115.914C259.11 117.076 260.699 117.729 262.356 117.729C264.013 117.729 265.601 117.076 266.773 115.914C267.944 114.752 268.602 113.176 268.602 111.532C268.602 109.889 267.944 108.313 266.773 107.151C265.601 105.989 264.013 105.336 262.356 105.336C260.699 105.336 259.11 105.989 257.939 107.151C256.767 108.313 256.109 109.889 256.109 111.532V111.532Z" stroke="white" stroke-opacity="0.3"/>
<path d="M261.109 185.896C261.109 186.224 261.241 186.539 261.475 186.772C261.71 187.004 262.027 187.135 262.359 187.135C262.69 187.135 263.008 187.004 263.242 186.772C263.476 186.539 263.608 186.224 263.608 185.896C263.608 185.567 263.476 185.252 263.242 185.019C263.008 184.787 262.69 184.656 262.359 184.656C262.027 184.656 261.71 184.787 261.475 185.019C261.241 185.252 261.109 185.567 261.109 185.896V185.896Z" stroke="white" stroke-opacity="0.3"/>
<path d="M264.857 257.773L259.859 262.731L264.857 257.773Z" stroke="white" stroke-opacity="0.3"/>
<path d="M256.109 334.603C256.109 336.246 256.767 337.822 257.939 338.984C259.11 340.146 260.699 340.799 262.356 340.799C264.013 340.799 265.601 340.146 266.773 338.984C267.944 337.822 268.602 336.246 268.602 334.603C268.602 332.959 267.944 331.383 266.773 330.221C265.601 329.059 264.013 328.406 262.356 328.406C260.699 328.406 259.11 329.059 257.939 330.221C256.767 331.383 256.109 332.959 256.109 334.603V334.603Z" stroke="white" stroke-opacity="0.3"/>
<path d="M269.851 401.531L254.859 416.403L269.851 401.531Z" stroke="white" stroke-opacity="0.3"/>
<path d="M269.851 475.883L254.859 490.754L269.851 475.883Z" stroke="white" stroke-opacity="0.3"/>
<path d="M256.109 557.681C256.109 559.324 256.767 560.9 257.939 562.062C259.11 563.224 260.699 563.877 262.356 563.877C264.013 563.877 265.601 563.224 266.773 562.062C267.944 560.9 268.602 559.324 268.602 557.681C268.602 556.037 267.944 554.461 266.773 553.299C265.601 552.137 264.013 551.484 262.356 551.484C260.699 551.484 259.11 552.137 257.939 553.299C256.767 554.461 256.109 556.037 256.109 557.681V557.681Z" stroke="white" stroke-opacity="0.3"/>
<path d="M269.851 624.602L254.859 639.473L269.851 624.602Z" stroke="white" stroke-opacity="0.3"/>
<path d="M331.07 37.1808C331.07 38.8242 331.728 40.4003 332.9 41.5623C334.071 42.7244 335.66 43.3772 337.317 43.3772C338.974 43.3772 340.562 42.7244 341.734 41.5623C342.905 40.4003 343.563 38.8242 343.563 37.1808C343.563 35.5374 342.905 33.9613 341.734 32.7993C340.562 31.6372 338.974 30.9844 337.317 30.9844C335.66 30.9844 334.071 31.6372 332.9 32.7993C331.728 33.9613 331.07 35.5374 331.07 37.1808V37.1808Z" stroke="white" stroke-opacity="0.3"/>
<path d="M344.812 104.102L329.82 118.973L344.812 104.102Z" stroke="white" stroke-opacity="0.3"/>
<path d="M344.812 178.453L329.82 193.325L344.812 178.453Z" stroke="white" stroke-opacity="0.3"/>
<path d="M331.07 260.251C331.07 261.895 331.728 263.471 332.9 264.633C334.071 265.795 335.66 266.448 337.317 266.448C338.974 266.448 340.562 265.795 341.734 264.633C342.905 263.471 343.563 261.895 343.563 260.251C343.563 258.608 342.905 257.032 341.734 255.87C340.562 254.708 338.974 254.055 337.317 254.055C335.66 254.055 334.071 254.708 332.9 255.87C331.728 257.032 331.07 258.608 331.07 260.251V260.251Z" stroke="white" stroke-opacity="0.3"/>
<path d="M344.812 327.172L329.82 342.043L344.812 327.172Z" stroke="white" stroke-opacity="0.3"/>
<path d="M339.81 406.484L334.812 411.442L339.81 406.484Z" stroke="white" stroke-opacity="0.3"/>
<path d="M331.07 483.321C331.07 484.965 331.728 486.541 332.9 487.703C334.071 488.865 335.66 489.518 337.317 489.518C338.974 489.518 340.562 488.865 341.734 487.703C342.905 486.541 343.563 484.965 343.563 483.321C343.563 481.678 342.905 480.102 341.734 478.94C340.562 477.778 338.974 477.125 337.317 477.125C335.66 477.125 334.071 477.778 332.9 478.94C331.728 480.102 331.07 481.678 331.07 483.321V483.321Z" stroke="white" stroke-opacity="0.3"/>
<path d="M344.812 550.242L329.82 565.114L344.812 550.242Z" stroke="white" stroke-opacity="0.3"/>
<path d="M344.812 624.602L329.82 639.473L344.812 624.602Z" stroke="white" stroke-opacity="0.3"/>
<path d="M414.771 34.7031L409.773 39.6603L414.771 34.7031Z" stroke="white" stroke-opacity="0.3"/>
<path d="M419.765 104.102L404.773 118.973L419.765 104.102Z" stroke="white" stroke-opacity="0.3"/>
<path d="M414.771 183.414L409.773 188.371L414.771 183.414Z" stroke="white" stroke-opacity="0.3"/>
<path d="M406.023 260.251C406.023 261.895 406.682 263.471 407.853 264.633C409.024 265.795 410.613 266.448 412.27 266.448C413.927 266.448 415.515 265.795 416.687 264.633C417.858 263.471 418.516 261.895 418.516 260.251C418.516 258.608 417.858 257.032 416.687 255.87C415.515 254.708 413.927 254.055 412.27 254.055C410.613 254.055 409.024 254.708 407.853 255.87C406.682 257.032 406.023 258.608 406.023 260.251V260.251Z" stroke="white" stroke-opacity="0.3"/>
<path d="M419.765 327.172L404.773 342.043L419.765 327.172Z" stroke="white" stroke-opacity="0.3"/>
<path d="M406.023 408.962C406.023 410.605 406.682 412.182 407.853 413.344C409.024 414.506 410.613 415.158 412.27 415.158C413.927 415.158 415.515 414.506 416.687 413.344C417.858 412.182 418.516 410.605 418.516 408.962C418.516 407.319 417.858 405.743 416.687 404.581C415.515 403.418 413.927 402.766 412.27 402.766C410.613 402.766 409.024 403.418 407.853 404.581C406.682 405.743 406.023 407.319 406.023 408.962V408.962Z" stroke="white" stroke-opacity="0.3"/>
<path d="M411.023 483.317C411.023 483.646 411.155 483.961 411.389 484.194C411.624 484.426 411.941 484.557 412.273 484.557C412.604 484.557 412.922 484.426 413.156 484.194C413.39 483.961 413.522 483.646 413.522 483.317C413.522 482.989 413.39 482.674 413.156 482.441C412.922 482.209 412.604 482.078 412.273 482.078C411.941 482.078 411.624 482.209 411.389 482.441C411.155 482.674 411.023 482.989 411.023 483.317V483.317Z" stroke="white" stroke-opacity="0.3"/>
<path d="M414.771 555.203L409.773 560.16L414.771 555.203Z" stroke="white" stroke-opacity="0.3"/>
<path d="M419.765 624.602L404.773 639.473L419.765 624.602Z" stroke="white" stroke-opacity="0.3"/>
<path d="M494.726 29.7422L479.734 44.6136L494.726 29.7422Z" stroke="white" stroke-opacity="0.3"/>
<path d="M480.984 111.532C480.984 113.176 481.642 114.752 482.814 115.914C483.985 117.076 485.574 117.729 487.231 117.729C488.888 117.729 490.476 117.076 491.648 115.914C492.819 114.752 493.477 113.176 493.477 111.532C493.477 109.889 492.819 108.313 491.648 107.151C490.476 105.989 488.888 105.336 487.231 105.336C485.574 105.336 483.985 105.989 482.814 107.151C481.642 108.313 480.984 109.889 480.984 111.532V111.532Z" stroke="white" stroke-opacity="0.3"/>
<path d="M485.984 185.896C485.984 186.224 486.116 186.539 486.35 186.772C486.585 187.004 486.902 187.135 487.234 187.135C487.565 187.135 487.883 187.004 488.117 186.772C488.351 186.539 488.483 186.224 488.483 185.896C488.483 185.567 488.351 185.252 488.117 185.019C487.883 184.787 487.565 184.656 487.234 184.656C486.902 184.656 486.585 184.787 486.35 185.019C486.116 185.252 485.984 185.567 485.984 185.896V185.896Z" stroke="white" stroke-opacity="0.3"/>
<path d="M489.732 257.773L484.734 262.731L489.732 257.773Z" stroke="white" stroke-opacity="0.3"/>
<path d="M480.984 334.603C480.984 336.246 481.642 337.822 482.814 338.984C483.985 340.146 485.574 340.799 487.231 340.799C488.888 340.799 490.476 340.146 491.648 338.984C492.819 337.822 493.477 336.246 493.477 334.603C493.477 332.959 492.819 331.383 491.648 330.221C490.476 329.059 488.888 328.406 487.231 328.406C485.574 328.406 483.985 329.059 482.814 330.221C481.642 331.383 480.984 332.959 480.984 334.603V334.603Z" stroke="white" stroke-opacity="0.3"/>
<path d="M480.984 408.962C480.984 410.605 481.642 412.182 482.814 413.344C483.985 414.506 485.574 415.158 487.231 415.158C488.888 415.158 490.476 414.506 491.648 413.344C492.819 412.182 493.477 410.605 493.477 408.962C493.477 407.319 492.819 405.743 491.648 404.581C490.476 403.418 488.888 402.766 487.231 402.766C485.574 402.766 483.985 403.418 482.814 404.581C481.642 405.743 480.984 407.319 480.984 408.962V408.962Z" stroke="white" stroke-opacity="0.3"/>
<path d="M480.984 483.321C480.984 484.965 481.642 486.541 482.814 487.703C483.985 488.865 485.574 489.518 487.231 489.518C488.888 489.518 490.476 488.865 491.648 487.703C492.819 486.541 493.477 484.965 493.477 483.321C493.477 481.678 492.819 480.102 491.648 478.94C490.476 477.778 488.888 477.125 487.231 477.125C485.574 477.125 483.985 477.778 482.814 478.94C481.642 480.102 480.984 481.678 480.984 483.321V483.321Z" stroke="white" stroke-opacity="0.3"/>
<path d="M524.708 520.5L449.75 594.857L524.708 520.5Z" stroke="white" stroke-opacity="0.3" stroke-width="3"/>
<path d="M483.484 632.038C483.484 633.024 483.879 633.97 484.582 634.667C485.285 635.364 486.238 635.756 487.232 635.756C488.226 635.756 489.18 635.364 489.882 634.667C490.585 633.97 490.98 633.024 490.98 632.038C490.98 631.052 490.585 630.106 489.882 629.409C489.18 628.712 488.226 628.32 487.232 628.32C486.238 628.32 485.285 628.712 484.582 629.409C483.879 630.106 483.484 631.052 483.484 632.038V632.038Z" stroke="white" stroke-opacity="0.3"/>
<path d="M569.687 29.7422L554.695 44.6136L569.687 29.7422Z" stroke="white" stroke-opacity="0.3"/>
<path d="M569.687 104.102L554.695 118.973L569.687 104.102Z" stroke="white" stroke-opacity="0.3"/>
<path d="M555.945 185.892C555.945 187.535 556.603 189.111 557.775 190.273C558.946 191.435 560.535 192.088 562.192 192.088C563.849 192.088 565.437 191.435 566.609 190.273C567.78 189.111 568.438 187.535 568.438 185.892C568.438 184.248 567.78 182.672 566.609 181.51C565.437 180.348 563.849 179.695 562.192 179.695C560.535 179.695 558.946 180.348 557.775 181.51C556.603 182.672 555.945 184.248 555.945 185.892V185.892Z" stroke="white" stroke-opacity="0.3"/>
<path d="M569.687 252.812L554.695 267.684L569.687 252.812Z" stroke="white" stroke-opacity="0.3"/>
<path d="M555.945 334.603C555.945 336.246 556.603 337.822 557.775 338.984C558.946 340.146 560.535 340.799 562.192 340.799C563.849 340.799 565.437 340.146 566.609 338.984C567.78 337.822 568.438 336.246 568.438 334.603C568.438 332.959 567.78 331.383 566.609 330.221C565.437 329.059 563.849 328.406 562.192 328.406C560.535 328.406 558.946 329.059 557.775 330.221C556.603 331.383 555.945 332.959 555.945 334.603V334.603Z" stroke="white" stroke-opacity="0.3"/>
<path d="M569.687 401.531L554.695 416.403L569.687 401.531Z" stroke="white" stroke-opacity="0.3"/>
<path d="M555.945 483.321C555.945 484.965 556.603 486.541 557.775 487.703C558.946 488.865 560.535 489.518 562.192 489.518C563.849 489.518 565.437 488.865 566.609 487.703C567.78 486.541 568.438 484.965 568.438 483.321C568.438 481.678 567.78 480.102 566.609 478.94C565.437 477.778 563.849 477.125 562.192 477.125C560.535 477.125 558.946 477.778 557.775 478.94C556.603 480.102 555.945 481.678 555.945 483.321V483.321Z" stroke="white" stroke-opacity="0.3"/>
<path d="M560.938 557.677C560.938 558.005 561.069 558.321 561.303 558.553C561.538 558.786 561.855 558.916 562.187 558.916C562.518 558.916 562.836 558.786 563.07 558.553C563.304 558.321 563.436 558.005 563.436 557.677C563.436 557.348 563.304 557.033 563.07 556.8C562.836 556.568 562.518 556.438 562.187 556.438C561.855 556.438 561.538 556.568 561.303 556.8C561.069 557.033 560.938 557.348 560.938 557.677V557.677Z" stroke="white" stroke-opacity="0.3"/>
<path d="M569.687 624.602L554.695 639.473L569.687 624.602Z" stroke="white" stroke-opacity="0.3"/>
<path d="M644.64 29.7422L629.648 44.6136L644.64 29.7422Z" stroke="white" stroke-opacity="0.3"/>
<path d="M644.64 104.102L629.648 118.973L644.64 104.102Z" stroke="white" stroke-opacity="0.3"/>
<path d="M630.898 185.892C630.898 187.535 631.557 189.111 632.728 190.273C633.899 191.435 635.488 192.088 637.145 192.088C638.802 192.088 640.39 191.435 641.562 190.273C642.733 189.111 643.391 187.535 643.391 185.892C643.391 184.248 642.733 182.672 641.562 181.51C640.39 180.348 638.802 179.695 637.145 179.695C635.488 179.695 633.899 180.348 632.728 181.51C631.557 182.672 630.898 184.248 630.898 185.892V185.892Z" stroke="white" stroke-opacity="0.3"/>
<path d="M674.622 223.07L599.664 297.427L674.622 223.07Z" stroke="white" stroke-opacity="0.3" stroke-width="3"/>
<path d="M644.64 327.172L629.648 342.043L644.64 327.172Z" stroke="white" stroke-opacity="0.3"/>
<path d="M644.64 401.531L629.648 416.403L644.64 401.531Z" stroke="white" stroke-opacity="0.3"/>
<path d="M630.898 483.321C630.898 484.965 631.557 486.541 632.728 487.703C633.899 488.865 635.488 489.518 637.145 489.518C638.802 489.518 640.39 488.865 641.562 487.703C642.733 486.541 643.391 484.965 643.391 483.321C643.391 481.678 642.733 480.102 641.562 478.94C640.39 477.778 638.802 477.125 637.145 477.125C635.488 477.125 633.899 477.778 632.728 478.94C631.557 480.102 630.898 481.678 630.898 483.321V483.321Z" stroke="white" stroke-opacity="0.3"/>
<path d="M630.898 557.681C630.898 559.324 631.557 560.9 632.728 562.062C633.899 563.224 635.488 563.877 637.145 563.877C638.802 563.877 640.39 563.224 641.562 562.062C642.733 560.9 643.391 559.324 643.391 557.681C643.391 556.037 642.733 554.461 641.562 553.299C640.39 552.137 638.802 551.484 637.145 551.484C635.488 551.484 633.899 552.137 632.728 553.299C631.557 554.461 630.898 556.037 630.898 557.681V557.681Z" stroke="white" stroke-opacity="0.3"/>
<path d="M630.898 632.032C630.898 633.676 631.557 635.252 632.728 636.414C633.899 637.576 635.488 638.229 637.145 638.229C638.802 638.229 640.39 637.576 641.562 636.414C642.733 635.252 643.391 633.676 643.391 632.032C643.391 630.389 642.733 628.813 641.562 627.651C640.39 626.489 638.802 625.836 637.145 625.836C635.488 625.836 633.899 626.489 632.728 627.651C631.557 628.813 630.898 630.389 630.898 632.032V632.032Z" stroke="white" stroke-opacity="0.3"/>
<path d="M705.859 37.1808C705.859 38.8242 706.517 40.4003 707.689 41.5623C708.86 42.7244 710.449 43.3772 712.106 43.3772C713.763 43.3772 715.351 42.7244 716.523 41.5623C717.694 40.4003 718.352 38.8242 718.352 37.1808C718.352 35.5374 717.694 33.9613 716.523 32.7993C715.351 31.6372 713.763 30.9844 712.106 30.9844C710.449 30.9844 708.86 31.6372 707.689 32.7993C706.517 33.9613 705.859 35.5374 705.859 37.1808V37.1808Z" stroke="white" stroke-opacity="0.3"/>
<path d="M714.607 109.055L709.609 114.012L714.607 109.055Z" stroke="white" stroke-opacity="0.3"/>
<path d="M705.859 185.892C705.859 187.535 706.517 189.111 707.689 190.273C708.86 191.435 710.449 192.088 712.106 192.088C713.763 192.088 715.351 191.435 716.523 190.273C717.694 189.111 718.352 187.535 718.352 185.892C718.352 184.248 717.694 182.672 716.523 181.51C715.351 180.348 713.763 179.695 712.106 179.695C710.449 179.695 708.86 180.348 707.689 181.51C706.517 182.672 705.859 184.248 705.859 185.892V185.892Z" stroke="white" stroke-opacity="0.3"/>
<path d="M714.607 257.773L709.609 262.731L714.607 257.773Z" stroke="white" stroke-opacity="0.3"/>
<path d="M705.859 334.603C705.859 336.246 706.517 337.822 707.689 338.984C708.86 340.146 710.449 340.799 712.106 340.799C713.763 340.799 715.351 340.146 716.523 338.984C717.694 337.822 718.352 336.246 718.352 334.603C718.352 332.959 717.694 331.383 716.523 330.221C715.351 329.059 713.763 328.406 712.106 328.406C710.449 328.406 708.86 329.059 707.689 330.221C706.517 331.383 705.859 332.959 705.859 334.603V334.603Z" stroke="white" stroke-opacity="0.3"/>
<path d="M710.859 408.966C710.859 409.295 710.991 409.61 711.225 409.842C711.46 410.075 711.777 410.205 712.109 410.205C712.44 410.205 712.758 410.075 712.992 409.842C713.226 409.61 713.358 409.295 713.358 408.966C713.358 408.637 713.226 408.322 712.992 408.09C712.758 407.857 712.44 407.727 712.109 407.727C711.777 407.727 711.46 407.857 711.225 408.09C710.991 408.322 710.859 408.637 710.859 408.966V408.966Z" stroke="white" stroke-opacity="0.3"/>
<path d="M710.859 483.317C710.859 483.646 710.991 483.961 711.225 484.194C711.46 484.426 711.777 484.557 712.109 484.557C712.44 484.557 712.758 484.426 712.992 484.194C713.226 483.961 713.358 483.646 713.358 483.317C713.358 482.989 713.226 482.674 712.992 482.441C712.758 482.209 712.44 482.078 712.109 482.078C711.777 482.078 711.46 482.209 711.225 482.441C710.991 482.674 710.859 482.989 710.859 483.317V483.317Z" stroke="white" stroke-opacity="0.3"/>
<path d="M714.607 555.203L709.609 560.16L714.607 555.203Z" stroke="white" stroke-opacity="0.3"/>
<path d="M708.359 632.038C708.359 633.024 708.754 633.97 709.457 634.667C710.16 635.364 711.113 635.756 712.107 635.756C713.101 635.756 714.055 635.364 714.757 634.667C715.46 633.97 715.855 633.024 715.855 632.038C715.855 631.052 715.46 630.106 714.757 629.409C714.055 628.712 713.101 628.32 712.107 628.32C711.113 628.32 710.16 628.712 709.457 629.409C708.754 630.106 708.359 631.052 708.359 632.038V632.038Z" stroke="white" stroke-opacity="0.3"/>
<path d="M783.312 37.1788C783.312 38.1648 783.707 39.1105 784.41 39.8077C785.113 40.5049 786.066 40.8967 787.06 40.8967C788.054 40.8967 789.008 40.5049 789.711 39.8077C790.413 39.1105 790.808 38.1648 790.808 37.1788C790.808 36.1928 790.413 35.2471 789.711 34.5499C789.008 33.8526 788.054 33.4609 787.06 33.4609C786.066 33.4609 785.113 33.8526 784.41 34.5499C783.707 35.2471 783.312 36.1928 783.312 37.1788V37.1788Z" stroke="white" stroke-opacity="0.3"/>
<path d="M794.562 104.102L779.57 118.973L794.562 104.102Z" stroke="white" stroke-opacity="0.3"/>
<path d="M789.56 183.414L784.562 188.371L789.56 183.414Z" stroke="white" stroke-opacity="0.3"/>
<path d="M783.312 260.249C783.312 261.235 783.707 262.181 784.41 262.878C785.113 263.575 786.066 263.967 787.06 263.967C788.054 263.967 789.008 263.575 789.711 262.878C790.413 262.181 790.808 261.235 790.808 260.249C790.808 259.263 790.413 258.317 789.711 257.62C789.008 256.923 788.054 256.531 787.06 256.531C786.066 256.531 785.113 256.923 784.41 257.62C783.707 258.317 783.312 259.263 783.312 260.249V260.249Z" stroke="white" stroke-opacity="0.3"/>
<path d="M794.562 327.172L779.57 342.043L794.562 327.172Z" stroke="white" stroke-opacity="0.3"/>
<path d="M794.562 401.531L779.57 416.403L794.562 401.531Z" stroke="white" stroke-opacity="0.3"/>
<path d="M794.562 475.883L779.57 490.754L794.562 475.883Z" stroke="white" stroke-opacity="0.3"/>
<path d="M794.562 550.242L779.57 565.114L794.562 550.242Z" stroke="white" stroke-opacity="0.3"/>
<path d="M780.82 632.032C780.82 633.676 781.478 635.252 782.65 636.414C783.821 637.576 785.41 638.229 787.067 638.229C788.724 638.229 790.312 637.576 791.484 636.414C792.655 635.252 793.313 633.676 793.313 632.032C793.313 630.389 792.655 628.813 791.484 627.651C790.312 626.489 788.724 625.836 787.067 625.836C785.41 625.836 783.821 626.489 782.65 627.651C781.478 628.813 780.82 630.389 780.82 632.032V632.032Z" stroke="white" stroke-opacity="0.3"/>
<path d="M855.773 37.1808C855.773 38.8242 856.432 40.4003 857.603 41.5623C858.774 42.7244 860.363 43.3772 862.02 43.3772C863.677 43.3772 865.265 42.7244 866.437 41.5623C867.608 40.4003 868.266 38.8242 868.266 37.1808C868.266 35.5374 867.608 33.9613 866.437 32.7993C865.265 31.6372 863.677 30.9844 862.02 30.9844C860.363 30.9844 858.774 31.6372 857.603 32.7993C856.432 33.9613 855.773 35.5374 855.773 37.1808V37.1808Z" stroke="white" stroke-opacity="0.3"/>
<path d="M869.515 104.102L854.523 118.973L869.515 104.102Z" stroke="white" stroke-opacity="0.3"/>
<path d="M860.773 185.896C860.773 186.224 860.905 186.539 861.139 186.772C861.374 187.004 861.691 187.135 862.023 187.135C862.354 187.135 862.672 187.004 862.906 186.772C863.14 186.539 863.272 186.224 863.272 185.896C863.272 185.567 863.14 185.252 862.906 185.019C862.672 184.787 862.354 184.656 862.023 184.656C861.691 184.656 861.374 184.787 861.139 185.019C860.905 185.252 860.773 185.567 860.773 185.896V185.896Z" stroke="white" stroke-opacity="0.3"/>
<path d="M855.773 260.251C855.773 261.895 856.432 263.471 857.603 264.633C858.774 265.795 860.363 266.448 862.02 266.448C863.677 266.448 865.265 265.795 866.437 264.633C867.608 263.471 868.266 261.895 868.266 260.251C868.266 258.608 867.608 257.032 866.437 255.87C865.265 254.708 863.677 254.055 862.02 254.055C860.363 254.055 858.774 254.708 857.603 255.87C856.432 257.032 855.773 258.608 855.773 260.251V260.251Z" stroke="white" stroke-opacity="0.3"/>
<path d="M855.773 334.603C855.773 336.246 856.432 337.822 857.603 338.984C858.774 340.146 860.363 340.799 862.02 340.799C863.677 340.799 865.265 340.146 866.437 338.984C867.608 337.822 868.266 336.246 868.266 334.603C868.266 332.959 867.608 331.383 866.437 330.221C865.265 329.059 863.677 328.406 862.02 328.406C860.363 328.406 858.774 329.059 857.603 330.221C856.432 331.383 855.773 332.959 855.773 334.603V334.603Z" stroke="white" stroke-opacity="0.3"/>
<path d="M855.773 408.962C855.773 410.605 856.432 412.182 857.603 413.344C858.774 414.506 860.363 415.158 862.02 415.158C863.677 415.158 865.265 414.506 866.437 413.344C867.608 412.182 868.266 410.605 868.266 408.962C868.266 407.319 867.608 405.743 866.437 404.581C865.265 403.418 863.677 402.766 862.02 402.766C860.363 402.766 858.774 403.418 857.603 404.581C856.432 405.743 855.773 407.319 855.773 408.962V408.962Z" stroke="white" stroke-opacity="0.3"/>
<path d="M864.521 480.844L859.523 485.801L864.521 480.844Z" stroke="white" stroke-opacity="0.3"/>
<path d="M855.773 557.681C855.773 559.324 856.432 560.9 857.603 562.062C858.774 563.224 860.363 563.877 862.02 563.877C863.677 563.877 865.265 563.224 866.437 562.062C867.608 560.9 868.266 559.324 868.266 557.681C868.266 556.037 867.608 554.461 866.437 553.299C865.265 552.137 863.677 551.484 862.02 551.484C860.363 551.484 858.774 552.137 857.603 553.299C856.432 554.461 855.773 556.037 855.773 557.681V557.681Z" stroke="white" stroke-opacity="0.3"/>
<path d="M864.521 629.555L859.523 634.512L864.521 629.555Z" stroke="white" stroke-opacity="0.3"/>
<path d="M930.734 37.1808C930.734 38.8242 931.392 40.4003 932.564 41.5623C933.735 42.7244 935.324 43.3772 936.981 43.3772C938.638 43.3772 940.226 42.7244 941.398 41.5623C942.569 40.4003 943.227 38.8242 943.227 37.1808C943.227 35.5374 942.569 33.9613 941.398 32.7993C940.226 31.6372 938.638 30.9844 936.981 30.9844C935.324 30.9844 933.735 31.6372 932.564 32.7993C931.392 33.9613 930.734 35.5374 930.734 37.1808V37.1808Z" stroke="white" stroke-opacity="0.3"/>
<path d="M930.734 111.532C930.734 113.176 931.392 114.752 932.564 115.914C933.735 117.076 935.324 117.729 936.981 117.729C938.638 117.729 940.226 117.076 941.398 115.914C942.569 114.752 943.227 113.176 943.227 111.532C943.227 109.889 942.569 108.313 941.398 107.151C940.226 105.989 938.638 105.336 936.981 105.336C935.324 105.336 933.735 105.989 932.564 107.151C931.392 108.313 930.734 109.889 930.734 111.532V111.532Z" stroke="white" stroke-opacity="0.3"/>
<path d="M944.476 178.453L929.484 193.325L944.476 178.453Z" stroke="white" stroke-opacity="0.3"/>
<path d="M944.476 252.812L929.484 267.684L944.476 252.812Z" stroke="white" stroke-opacity="0.3"/>
<path d="M944.476 327.172L929.484 342.043L944.476 327.172Z" stroke="white" stroke-opacity="0.3"/>
<path d="M930.734 408.962C930.734 410.605 931.392 412.182 932.564 413.344C933.735 414.506 935.324 415.158 936.981 415.158C938.638 415.158 940.226 414.506 941.398 413.344C942.569 412.182 943.227 410.605 943.227 408.962C943.227 407.319 942.569 405.743 941.398 404.581C940.226 403.418 938.638 402.766 936.981 402.766C935.324 402.766 933.735 403.418 932.564 404.581C931.392 405.743 930.734 407.319 930.734 408.962V408.962Z" stroke="white" stroke-opacity="0.3"/>
<path d="M939.482 480.844L934.484 485.801L939.482 480.844Z" stroke="white" stroke-opacity="0.3"/>
<path d="M939.482 555.203L934.484 560.16L939.482 555.203Z" stroke="white" stroke-opacity="0.3"/>
<path d="M930.734 632.032C930.734 633.676 931.392 635.252 932.564 636.414C933.735 637.576 935.324 638.229 936.981 638.229C938.638 638.229 940.226 637.576 941.398 636.414C942.569 635.252 943.227 633.676 943.227 632.032C943.227 630.389 942.569 628.813 941.398 627.651C940.226 626.489 938.638 625.836 936.981 625.836C935.324 625.836 933.735 626.489 932.564 627.651C931.392 628.813 930.734 630.389 930.734 632.032V632.032Z" stroke="white" stroke-opacity="0.3"/>
<path d="M1014.43 34.7031L1009.44 39.6603L1014.43 34.7031Z" stroke="white" stroke-opacity="0.3"/>
<path d="M1014.43 109.055L1009.44 114.012L1014.43 109.055Z" stroke="white" stroke-opacity="0.3"/>
<path d="M1014.43 183.414L1009.44 188.371L1014.43 183.414Z" stroke="white" stroke-opacity="0.3"/>
<path d="M1019.44 252.812L1004.45 267.684L1019.44 252.812Z" stroke="white" stroke-opacity="0.3"/>
<path d="M1049.42 297.43L974.461 371.787L1049.42 297.43Z" stroke="white" stroke-opacity="0.3" stroke-width="3"/>
<path d="M1019.44 401.531L1004.45 416.403L1019.44 401.531Z" stroke="white" stroke-opacity="0.3"/>
<path d="M1014.43 480.844L1009.44 485.801L1014.43 480.844Z" stroke="white" stroke-opacity="0.3"/>
<path d="M1019.44 550.242L1004.45 565.114L1019.44 550.242Z" stroke="white" stroke-opacity="0.3"/>
<path d="M1008.19 632.038C1008.19 633.024 1008.58 633.97 1009.29 634.667C1009.99 635.364 1010.94 635.756 1011.94 635.756C1012.93 635.756 1013.88 635.364 1014.59 634.667C1015.29 633.97 1015.68 633.024 1015.68 632.038C1015.68 631.052 1015.29 630.106 1014.59 629.409C1013.88 628.712 1012.93 628.32 1011.94 628.32C1010.94 628.32 1009.99 628.712 1009.29 629.409C1008.58 630.106 1008.19 631.052 1008.19 632.038V632.038Z" stroke="white" stroke-opacity="0.3"/>
<path d="M1083.15 37.1788C1083.15 38.1648 1083.54 39.1105 1084.25 39.8077C1084.95 40.5049 1085.9 40.8967 1086.9 40.8967C1087.89 40.8967 1088.84 40.5049 1089.55 39.8077C1090.25 39.1105 1090.64 38.1648 1090.64 37.1788C1090.64 36.1928 1090.25 35.2471 1089.55 34.5499C1088.84 33.8526 1087.89 33.4609 1086.9 33.4609C1085.9 33.4609 1084.95 33.8526 1084.25 34.5499C1083.54 35.2471 1083.15 36.1928 1083.15 37.1788V37.1788Z" stroke="white" stroke-opacity="0.3"/>
<path d="M1094.39 104.102L1079.4 118.973L1094.39 104.102Z" stroke="white" stroke-opacity="0.3"/>
<path d="M1083.15 185.89C1083.15 186.876 1083.54 187.821 1084.25 188.519C1084.95 189.216 1085.9 189.608 1086.9 189.608C1087.89 189.608 1088.84 189.216 1089.55 188.519C1090.25 187.821 1090.64 186.876 1090.64 185.89C1090.64 184.904 1090.25 183.958 1089.55 183.261C1088.84 182.564 1087.89 182.172 1086.9 182.172C1085.9 182.172 1084.95 182.564 1084.25 183.261C1083.54 183.958 1083.15 184.904 1083.15 185.89V185.89Z" stroke="white" stroke-opacity="0.3"/>
<path d="M1080.65 260.251C1080.65 261.895 1081.31 263.471 1082.48 264.633C1083.65 265.795 1085.24 266.448 1086.89 266.448C1088.55 266.448 1090.14 265.795 1091.31 264.633C1092.48 263.471 1093.14 261.895 1093.14 260.251C1093.14 258.608 1092.48 257.032 1091.31 255.87C1090.14 254.708 1088.55 254.055 1086.89 254.055C1085.24 254.055 1083.65 254.708 1082.48 255.87C1081.31 257.032 1080.65 258.608 1080.65 260.251V260.251Z" stroke="white" stroke-opacity="0.3"/>
<path d="M1080.65 334.603C1080.65 336.246 1081.31 337.822 1082.48 338.984C1083.65 340.146 1085.24 340.799 1086.89 340.799C1088.55 340.799 1090.14 340.146 1091.31 338.984C1092.48 337.822 1093.14 336.246 1093.14 334.603C1093.14 332.959 1092.48 331.383 1091.31 330.221C1090.14 329.059 1088.55 328.406 1086.89 328.406C1085.24 328.406 1083.65 329.059 1082.48 330.221C1081.31 331.383 1080.65 332.959 1080.65 334.603V334.603Z" stroke="white" stroke-opacity="0.3"/>
<path d="M1080.65 408.962C1080.65 410.605 1081.31 412.182 1082.48 413.344C1083.65 414.506 1085.24 415.158 1086.89 415.158C1088.55 415.158 1090.14 414.506 1091.31 413.344C1092.48 412.182 1093.14 410.605 1093.14 408.962C1093.14 407.319 1092.48 405.743 1091.31 404.581C1090.14 403.418 1088.55 402.766 1086.89 402.766C1085.24 402.766 1083.65 403.418 1082.48 404.581C1081.31 405.743 1080.65 407.319 1080.65 408.962V408.962Z" stroke="white" stroke-opacity="0.3"/>
<path d="M1080.65 483.321C1080.65 484.965 1081.31 486.541 1082.48 487.703C1083.65 488.865 1085.24 489.518 1086.89 489.518C1088.55 489.518 1090.14 488.865 1091.31 487.703C1092.48 486.541 1093.14 484.965 1093.14 483.321C1093.14 481.678 1092.48 480.102 1091.31 478.94C1090.14 477.778 1088.55 477.125 1086.89 477.125C1085.24 477.125 1083.65 477.778 1082.48 478.94C1081.31 480.102 1080.65 481.678 1080.65 483.321V483.321Z" stroke="white" stroke-opacity="0.3"/>
<path d="M1094.39 550.242L1079.4 565.114L1094.39 550.242Z" stroke="white" stroke-opacity="0.3"/>
<path d="M1094.39 624.602L1079.4 639.473L1094.39 624.602Z" stroke="white" stroke-opacity="0.3"/>
<path d="M1155.61 37.1808C1155.61 38.8242 1156.27 40.4003 1157.44 41.5623C1158.61 42.7244 1160.2 43.3772 1161.86 43.3772C1163.51 43.3772 1165.1 42.7244 1166.27 41.5623C1167.44 40.4003 1168.1 38.8242 1168.1 37.1808C1168.1 35.5374 1167.44 33.9613 1166.27 32.7993C1165.1 31.6372 1163.51 30.9844 1161.86 30.9844C1160.2 30.9844 1158.61 31.6372 1157.44 32.7993C1156.27 33.9613 1155.61 35.5374 1155.61 37.1808V37.1808Z" stroke="white" stroke-opacity="0.3"/>
<path d="M1155.61 111.532C1155.61 113.176 1156.27 114.752 1157.44 115.914C1158.61 117.076 1160.2 117.729 1161.86 117.729C1163.51 117.729 1165.1 117.076 1166.27 115.914C1167.44 114.752 1168.1 113.176 1168.1 111.532C1168.1 109.889 1167.44 108.313 1166.27 107.151C1165.1 105.989 1163.51 105.336 1161.86 105.336C1160.2 105.336 1158.61 105.989 1157.44 107.151C1156.27 108.313 1155.61 109.889 1155.61 111.532V111.532Z" stroke="white" stroke-opacity="0.3"/>
<path d="M1160.61 185.896C1160.61 186.224 1160.74 186.539 1160.98 186.772C1161.21 187.004 1161.53 187.135 1161.86 187.135C1162.19 187.135 1162.51 187.004 1162.74 186.772C1162.98 186.539 1163.11 186.224 1163.11 185.896C1163.11 185.567 1162.98 185.252 1162.74 185.019C1162.51 184.787 1162.19 184.656 1161.86 184.656C1161.53 184.656 1161.21 184.787 1160.98 185.019C1160.74 185.252 1160.61 185.567 1160.61 185.896V185.896Z" stroke="white" stroke-opacity="0.3"/>
<path d="M1164.36 257.773L1159.36 262.731L1164.36 257.773Z" stroke="white" stroke-opacity="0.3"/>
<path d="M1155.61 334.603C1155.61 336.246 1156.27 337.822 1157.44 338.984C1158.61 340.146 1160.2 340.799 1161.86 340.799C1163.51 340.799 1165.1 340.146 1166.27 338.984C1167.44 337.822 1168.1 336.246 1168.1 334.603C1168.1 332.959 1167.44 331.383 1166.27 330.221C1165.1 329.059 1163.51 328.406 1161.86 328.406C1160.2 328.406 1158.61 329.059 1157.44 330.221C1156.27 331.383 1155.61 332.959 1155.61 334.603V334.603Z" stroke="white" stroke-opacity="0.3"/>
<path d="M1169.35 401.531L1154.36 416.403L1169.35 401.531Z" stroke="white" stroke-opacity="0.3"/>
<path d="M1169.35 475.883L1154.36 490.754L1169.35 475.883Z" stroke="white" stroke-opacity="0.3"/>
<path d="M1155.61 557.681C1155.61 559.324 1156.27 560.9 1157.44 562.062C1158.61 563.224 1160.2 563.877 1161.86 563.877C1163.51 563.877 1165.1 563.224 1166.27 562.062C1167.44 560.9 1168.1 559.324 1168.1 557.681C1168.1 556.037 1167.44 554.461 1166.27 553.299C1165.1 552.137 1163.51 551.484 1161.86 551.484C1160.2 551.484 1158.61 552.137 1157.44 553.299C1156.27 554.461 1155.61 556.037 1155.61 557.681V557.681Z" stroke="white" stroke-opacity="0.3"/>
<path d="M1169.35 624.602L1154.36 639.473L1169.35 624.602Z" stroke="white" stroke-opacity="0.3"/>
<path d="M1230.57 37.1808C1230.57 38.8242 1231.23 40.4003 1232.4 41.5623C1233.57 42.7244 1235.16 43.3772 1236.82 43.3772C1238.47 43.3772 1240.06 42.7244 1241.23 41.5623C1242.41 40.4003 1243.06 38.8242 1243.06 37.1808C1243.06 35.5374 1242.41 33.9613 1241.23 32.7993C1240.06 31.6372 1238.47 30.9844 1236.82 30.9844C1235.16 30.9844 1233.57 31.6372 1232.4 32.7993C1231.23 33.9613 1230.57 35.5374 1230.57 37.1808V37.1808Z" stroke="white" stroke-opacity="0.3"/>
<path d="M1244.31 104.102L1229.32 118.973L1244.31 104.102Z" stroke="white" stroke-opacity="0.3"/>
<path d="M1244.31 178.453L1229.32 193.325L1244.31 178.453Z" stroke="white" stroke-opacity="0.3"/>
<path d="M1230.57 260.251C1230.57 261.895 1231.23 263.471 1232.4 264.633C1233.57 265.795 1235.16 266.448 1236.82 266.448C1238.47 266.448 1240.06 265.795 1241.23 264.633C1242.41 263.471 1243.06 261.895 1243.06 260.251C1243.06 258.608 1242.41 257.032 1241.23 255.87C1240.06 254.708 1238.47 254.055 1236.82 254.055C1235.16 254.055 1233.57 254.708 1232.4 255.87C1231.23 257.032 1230.57 258.608 1230.57 260.251V260.251Z" stroke="white" stroke-opacity="0.3"/>
<path d="M1244.31 327.172L1229.32 342.043L1244.31 327.172Z" stroke="white" stroke-opacity="0.3"/>
<path d="M1239.31 406.484L1234.31 411.442L1239.31 406.484Z" stroke="white" stroke-opacity="0.3"/>
<path d="M1230.57 483.321C1230.57 484.965 1231.23 486.541 1232.4 487.703C1233.57 488.865 1235.16 489.518 1236.82 489.518C1238.47 489.518 1240.06 488.865 1241.23 487.703C1242.41 486.541 1243.06 484.965 1243.06 483.321C1243.06 481.678 1242.41 480.102 1241.23 478.94C1240.06 477.778 1238.47 477.125 1236.82 477.125C1235.16 477.125 1233.57 477.778 1232.4 478.94C1231.23 480.102 1230.57 481.678 1230.57 483.321V483.321Z" stroke="white" stroke-opacity="0.3"/>
<path d="M1244.31 550.242L1229.32 565.114L1244.31 550.242Z" stroke="white" stroke-opacity="0.3"/>
<path d="M1244.31 624.602L1229.32 639.473L1244.31 624.602Z" stroke="white" stroke-opacity="0.3"/>
<path d="M1314.27 34.7031L1309.27 39.6603L1314.27 34.7031Z" stroke="white" stroke-opacity="0.3"/>
<path d="M1319.27 104.102L1304.27 118.973L1319.27 104.102Z" stroke="white" stroke-opacity="0.3"/>
<path d="M1314.27 183.414L1309.27 188.371L1314.27 183.414Z" stroke="white" stroke-opacity="0.3"/>
<path d="M1305.52 260.251C1305.52 261.895 1306.18 263.471 1307.35 264.633C1308.52 265.795 1310.11 266.448 1311.77 266.448C1313.43 266.448 1315.02 265.795 1316.19 264.633C1317.36 263.471 1318.02 261.895 1318.02 260.251C1318.02 258.608 1317.36 257.032 1316.19 255.87C1315.02 254.708 1313.43 254.055 1311.77 254.055C1310.11 254.055 1308.52 254.708 1307.35 255.87C1306.18 257.032 1305.52 258.608 1305.52 260.251V260.251Z" stroke="white" stroke-opacity="0.3"/>
<path d="M1319.27 327.172L1304.27 342.043L1319.27 327.172Z" stroke="white" stroke-opacity="0.3"/>
<path d="M1305.52 408.962C1305.52 410.605 1306.18 412.182 1307.35 413.344C1308.52 414.506 1310.11 415.158 1311.77 415.158C1313.43 415.158 1315.02 414.506 1316.19 413.344C1317.36 412.182 1318.02 410.605 1318.02 408.962C1318.02 407.319 1317.36 405.743 1316.19 404.581C1315.02 403.418 1313.43 402.766 1311.77 402.766C1310.11 402.766 1308.52 403.418 1307.35 404.581C1306.18 405.743 1305.52 407.319 1305.52 408.962V408.962Z" stroke="white" stroke-opacity="0.3"/>
<path d="M1310.52 483.317C1310.52 483.646 1310.66 483.961 1310.89 484.194C1311.12 484.426 1311.44 484.557 1311.77 484.557C1312.1 484.557 1312.42 484.426 1312.66 484.194C1312.89 483.961 1313.02 483.646 1313.02 483.317C1313.02 482.989 1312.89 482.674 1312.66 482.441C1312.42 482.209 1312.1 482.078 1311.77 482.078C1311.44 482.078 1311.12 482.209 1310.89 482.441C1310.66 482.674 1310.52 482.989 1310.52 483.317V483.317Z" stroke="white" stroke-opacity="0.3"/>
<path d="M1314.27 555.203L1309.27 560.16L1314.27 555.203Z" stroke="white" stroke-opacity="0.3"/>
<path d="M1319.27 624.602L1304.27 639.473L1319.27 624.602Z" stroke="white" stroke-opacity="0.3"/>
<path d="M1394.23 29.7422L1379.23 44.6136L1394.23 29.7422Z" stroke="white" stroke-opacity="0.3"/>
<path d="M1380.48 111.532C1380.48 113.176 1381.14 114.752 1382.31 115.914C1383.49 117.076 1385.07 117.729 1386.73 117.729C1388.39 117.729 1389.98 117.076 1391.15 115.914C1392.32 114.752 1392.98 113.176 1392.98 111.532C1392.98 109.889 1392.32 108.313 1391.15 107.151C1389.98 105.989 1388.39 105.336 1386.73 105.336C1385.07 105.336 1383.49 105.989 1382.31 107.151C1381.14 108.313 1380.48 109.889 1380.48 111.532V111.532Z" stroke="white" stroke-opacity="0.3"/>
<path d="M1385.48 185.896C1385.48 186.224 1385.62 186.539 1385.85 186.772C1386.08 187.004 1386.4 187.135 1386.73 187.135C1387.07 187.135 1387.38 187.004 1387.62 186.772C1387.85 186.539 1387.98 186.224 1387.98 185.896C1387.98 185.567 1387.85 185.252 1387.62 185.019C1387.38 184.787 1387.07 184.656 1386.73 184.656C1386.4 184.656 1386.08 184.787 1385.85 185.019C1385.62 185.252 1385.48 185.567 1385.48 185.896V185.896Z" stroke="white" stroke-opacity="0.3"/>
<path d="M1389.23 257.773L1384.23 262.731L1389.23 257.773Z" stroke="white" stroke-opacity="0.3"/>
<path d="M1380.48 334.603C1380.48 336.246 1381.14 337.822 1382.31 338.984C1383.49 340.146 1385.07 340.799 1386.73 340.799C1388.39 340.799 1389.98 340.146 1391.15 338.984C1392.32 337.822 1392.98 336.246 1392.98 334.603C1392.98 332.959 1392.32 331.383 1391.15 330.221C1389.98 329.059 1388.39 328.406 1386.73 328.406C1385.07 328.406 1383.49 329.059 1382.31 330.221C1381.14 331.383 1380.48 332.959 1380.48 334.603V334.603Z" stroke="white" stroke-opacity="0.3"/>
<path d="M1380.48 408.962C1380.48 410.605 1381.14 412.182 1382.31 413.344C1383.49 414.506 1385.07 415.158 1386.73 415.158C1388.39 415.158 1389.98 414.506 1391.15 413.344C1392.32 412.182 1392.98 410.605 1392.98 408.962C1392.98 407.319 1392.32 405.743 1391.15 404.581C1389.98 403.418 1388.39 402.766 1386.73 402.766C1385.07 402.766 1383.49 403.418 1382.31 404.581C1381.14 405.743 1380.48 407.319 1380.48 408.962V408.962Z" stroke="white" stroke-opacity="0.3"/>
<path d="M1380.48 483.321C1380.48 484.965 1381.14 486.541 1382.31 487.703C1383.49 488.865 1385.07 489.518 1386.73 489.518C1388.39 489.518 1389.98 488.865 1391.15 487.703C1392.32 486.541 1392.98 484.965 1392.98 483.321C1392.98 481.678 1392.32 480.102 1391.15 478.94C1389.98 477.778 1388.39 477.125 1386.73 477.125C1385.07 477.125 1383.49 477.778 1382.31 478.94C1381.14 480.102 1380.48 481.678 1380.48 483.321V483.321Z" stroke="white" stroke-opacity="0.3"/>
<path d="M1424.21 520.5L1349.25 594.857L1424.21 520.5Z" stroke="white" stroke-opacity="0.3" stroke-width="3"/>
<path d="M1382.98 632.038C1382.98 633.024 1383.38 633.97 1384.08 634.667C1384.78 635.364 1385.74 635.756 1386.73 635.756C1387.73 635.756 1388.68 635.364 1389.38 634.667C1390.09 633.97 1390.48 633.024 1390.48 632.038C1390.48 631.052 1390.09 630.106 1389.38 629.409C1388.68 628.712 1387.73 628.32 1386.73 628.32C1385.74 628.32 1384.78 628.712 1384.08 629.409C1383.38 630.106 1382.98 631.052 1382.98 632.038V632.038Z" stroke="white" stroke-opacity="0.3"/>
<path d="M1469.19 29.7422L1454.2 44.6136L1469.19 29.7422Z" stroke="white" stroke-opacity="0.3"/>
<path d="M1469.19 104.102L1454.2 118.973L1469.19 104.102Z" stroke="white" stroke-opacity="0.3"/>
<path d="M1455.45 185.892C1455.45 187.535 1456.1 189.111 1457.27 190.273C1458.45 191.435 1460.04 192.088 1461.69 192.088C1463.35 192.088 1464.94 191.435 1466.11 190.273C1467.28 189.111 1467.94 187.535 1467.94 185.892C1467.94 184.248 1467.28 182.672 1466.11 181.51C1464.94 180.348 1463.35 179.695 1461.69 179.695C1460.04 179.695 1458.45 180.348 1457.27 181.51C1456.1 182.672 1455.45 184.248 1455.45 185.892V185.892Z" stroke="white" stroke-opacity="0.3"/>
<path d="M1469.19 252.812L1454.2 267.684L1469.19 252.812Z" stroke="white" stroke-opacity="0.3"/>
<path d="M1455.45 334.603C1455.45 336.246 1456.1 337.822 1457.27 338.984C1458.45 340.146 1460.04 340.799 1461.69 340.799C1463.35 340.799 1464.94 340.146 1466.11 338.984C1467.28 337.822 1467.94 336.246 1467.94 334.603C1467.94 332.959 1467.28 331.383 1466.11 330.221C1464.94 329.059 1463.35 328.406 1461.69 328.406C1460.04 328.406 1458.45 329.059 1457.27 330.221C1456.1 331.383 1455.45 332.959 1455.45 334.603V334.603Z" stroke="white" stroke-opacity="0.3"/>
<path d="M1469.19 401.531L1454.2 416.403L1469.19 401.531Z" stroke="white" stroke-opacity="0.3"/>
<path d="M1455.45 483.321C1455.45 484.965 1456.1 486.541 1457.27 487.703C1458.45 488.865 1460.04 489.518 1461.69 489.518C1463.35 489.518 1464.94 488.865 1466.11 487.703C1467.28 486.541 1467.94 484.965 1467.94 483.321C1467.94 481.678 1467.28 480.102 1466.11 478.94C1464.94 477.778 1463.35 477.125 1461.69 477.125C1460.04 477.125 1458.45 477.778 1457.27 478.94C1456.1 480.102 1455.45 481.678 1455.45 483.321V483.321Z" stroke="white" stroke-opacity="0.3"/>
<path d="M1460.44 557.677C1460.44 558.005 1460.57 558.321 1460.8 558.553C1461.04 558.786 1461.36 558.916 1461.69 558.916C1462.02 558.916 1462.34 558.786 1462.57 558.553C1462.8 558.321 1462.94 558.005 1462.94 557.677C1462.94 557.348 1462.8 557.033 1462.57 556.8C1462.34 556.568 1462.02 556.438 1461.69 556.438C1461.36 556.438 1461.04 556.568 1460.8 556.8C1460.57 557.033 1460.44 557.348 1460.44 557.677V557.677Z" stroke="white" stroke-opacity="0.3"/>
<path d="M1469.19 624.602L1454.2 639.473L1469.19 624.602Z" stroke="white" stroke-opacity="0.3"/>
<path d="M1544.14 29.7422L1529.15 44.6136L1544.14 29.7422Z" stroke="white" stroke-opacity="0.3"/>
<path d="M1544.14 104.102L1529.15 118.973L1544.14 104.102Z" stroke="white" stroke-opacity="0.3"/>
<path d="M1530.4 185.892C1530.4 187.535 1531.06 189.111 1532.23 190.273C1533.4 191.435 1534.99 192.088 1536.64 192.088C1538.3 192.088 1539.89 191.435 1541.06 190.273C1542.23 189.111 1542.89 187.535 1542.89 185.892C1542.89 184.248 1542.23 182.672 1541.06 181.51C1539.89 180.348 1538.3 179.695 1536.64 179.695C1534.99 179.695 1533.4 180.348 1532.23 181.51C1531.06 182.672 1530.4 184.248 1530.4 185.892V185.892Z" stroke="white" stroke-opacity="0.3"/>
<path d="M1574.12 223.07L1499.16 297.427L1574.12 223.07Z" stroke="white" stroke-opacity="0.3" stroke-width="3"/>
<path d="M1544.14 327.172L1529.15 342.043L1544.14 327.172Z" stroke="white" stroke-opacity="0.3"/>
<path d="M1544.14 401.531L1529.15 416.403L1544.14 401.531Z" stroke="white" stroke-opacity="0.3"/>
<path d="M1530.4 483.321C1530.4 484.965 1531.06 486.541 1532.23 487.703C1533.4 488.865 1534.99 489.518 1536.64 489.518C1538.3 489.518 1539.89 488.865 1541.06 487.703C1542.23 486.541 1542.89 484.965 1542.89 483.321C1542.89 481.678 1542.23 480.102 1541.06 478.94C1539.89 477.778 1538.3 477.125 1536.64 477.125C1534.99 477.125 1533.4 477.778 1532.23 478.94C1531.06 480.102 1530.4 481.678 1530.4 483.321V483.321Z" stroke="white" stroke-opacity="0.3"/>
<path d="M1530.4 557.681C1530.4 559.324 1531.06 560.9 1532.23 562.062C1533.4 563.224 1534.99 563.877 1536.64 563.877C1538.3 563.877 1539.89 563.224 1541.06 562.062C1542.23 560.9 1542.89 559.324 1542.89 557.681C1542.89 556.037 1542.23 554.461 1541.06 553.299C1539.89 552.137 1538.3 551.484 1536.64 551.484C1534.99 551.484 1533.4 552.137 1532.23 553.299C1531.06 554.461 1530.4 556.037 1530.4 557.681V557.681Z" stroke="white" stroke-opacity="0.3"/>
<path d="M1530.4 632.032C1530.4 633.676 1531.06 635.252 1532.23 636.414C1533.4 637.576 1534.99 638.229 1536.64 638.229C1538.3 638.229 1539.89 637.576 1541.06 636.414C1542.23 635.252 1542.89 633.676 1542.89 632.032C1542.89 630.389 1542.23 628.813 1541.06 627.651C1539.89 626.489 1538.3 625.836 1536.64 625.836C1534.99 625.836 1533.4 626.489 1532.23 627.651C1531.06 628.813 1530.4 630.389 1530.4 632.032V632.032Z" stroke="white" stroke-opacity="0.3"/>
<path d="M1605.36 37.1808C1605.36 38.8242 1606.02 40.4003 1607.19 41.5623C1608.36 42.7244 1609.95 43.3772 1611.61 43.3772C1613.26 43.3772 1614.85 42.7244 1616.02 41.5623C1617.19 40.4003 1617.85 38.8242 1617.85 37.1808C1617.85 35.5374 1617.19 33.9613 1616.02 32.7993C1614.85 31.6372 1613.26 30.9844 1611.61 30.9844C1609.95 30.9844 1608.36 31.6372 1607.19 32.7993C1606.02 33.9613 1605.36 35.5374 1605.36 37.1808V37.1808Z" stroke="white" stroke-opacity="0.3"/>
<path d="M1614.11 109.055L1609.11 114.012L1614.11 109.055Z" stroke="white" stroke-opacity="0.3"/>
<path d="M1605.36 185.892C1605.36 187.535 1606.02 189.111 1607.19 190.273C1608.36 191.435 1609.95 192.088 1611.61 192.088C1613.26 192.088 1614.85 191.435 1616.02 190.273C1617.19 189.111 1617.85 187.535 1617.85 185.892C1617.85 184.248 1617.19 182.672 1616.02 181.51C1614.85 180.348 1613.26 179.695 1611.61 179.695C1609.95 179.695 1608.36 180.348 1607.19 181.51C1606.02 182.672 1605.36 184.248 1605.36 185.892V185.892Z" stroke="white" stroke-opacity="0.3"/>
<path d="M1614.11 257.773L1609.11 262.731L1614.11 257.773Z" stroke="white" stroke-opacity="0.3"/>
<path d="M1605.36 334.603C1605.36 336.246 1606.02 337.822 1607.19 338.984C1608.36 340.146 1609.95 340.799 1611.61 340.799C1613.26 340.799 1614.85 340.146 1616.02 338.984C1617.19 337.822 1617.85 336.246 1617.85 334.603C1617.85 332.959 1617.19 331.383 1616.02 330.221C1614.85 329.059 1613.26 328.406 1611.61 328.406C1609.95 328.406 1608.36 329.059 1607.19 330.221C1606.02 331.383 1605.36 332.959 1605.36 334.603V334.603Z" stroke="white" stroke-opacity="0.3"/>
<path d="M1610.36 408.966C1610.36 409.295 1610.49 409.61 1610.73 409.842C1610.96 410.075 1611.28 410.205 1611.61 410.205C1611.94 410.205 1612.26 410.075 1612.49 409.842C1612.73 409.61 1612.86 409.295 1612.86 408.966C1612.86 408.637 1612.73 408.322 1612.49 408.09C1612.26 407.857 1611.94 407.727 1611.61 407.727C1611.28 407.727 1610.96 407.857 1610.73 408.09C1610.49 408.322 1610.36 408.637 1610.36 408.966V408.966Z" stroke="white" stroke-opacity="0.3"/>
<path d="M1610.36 483.317C1610.36 483.646 1610.49 483.961 1610.73 484.194C1610.96 484.426 1611.28 484.557 1611.61 484.557C1611.94 484.557 1612.26 484.426 1612.49 484.194C1612.73 483.961 1612.86 483.646 1612.86 483.317C1612.86 482.989 1612.73 482.674 1612.49 482.441C1612.26 482.209 1611.94 482.078 1611.61 482.078C1611.28 482.078 1610.96 482.209 1610.73 482.441C1610.49 482.674 1610.36 482.989 1610.36 483.317V483.317Z" stroke="white" stroke-opacity="0.3"/>
<path d="M1614.11 555.203L1609.11 560.16L1614.11 555.203Z" stroke="white" stroke-opacity="0.3"/>
<path d="M1607.86 632.038C1607.86 633.024 1608.25 633.97 1608.96 634.667C1609.66 635.364 1610.61 635.756 1611.61 635.756C1612.6 635.756 1613.55 635.364 1614.26 634.667C1614.96 633.97 1615.36 633.024 1615.36 632.038C1615.36 631.052 1614.96 630.106 1614.26 629.409C1613.55 628.712 1612.6 628.32 1611.61 628.32C1610.61 628.32 1609.66 628.712 1608.96 629.409C1608.25 630.106 1607.86 631.052 1607.86 632.038V632.038Z" stroke="white" stroke-opacity="0.3"/>
<path d="M1682.81 37.1788C1682.81 38.1648 1683.21 39.1105 1683.91 39.8077C1684.61 40.5049 1685.57 40.8967 1686.56 40.8967C1687.55 40.8967 1688.51 40.5049 1689.21 39.8077C1689.91 39.1105 1690.31 38.1648 1690.31 37.1788C1690.31 36.1928 1689.91 35.2471 1689.21 34.5499C1688.51 33.8526 1687.55 33.4609 1686.56 33.4609C1685.57 33.4609 1684.61 33.8526 1683.91 34.5499C1683.21 35.2471 1682.81 36.1928 1682.81 37.1788V37.1788Z" stroke="white" stroke-opacity="0.3"/>
<path d="M1694.06 104.102L1679.07 118.973L1694.06 104.102Z" stroke="white" stroke-opacity="0.3"/>
<path d="M1689.06 183.414L1684.06 188.371L1689.06 183.414Z" stroke="white" stroke-opacity="0.3"/>
<path d="M1682.81 260.249C1682.81 261.235 1683.21 262.181 1683.91 262.878C1684.61 263.575 1685.57 263.967 1686.56 263.967C1687.55 263.967 1688.51 263.575 1689.21 262.878C1689.91 262.181 1690.31 261.235 1690.31 260.249C1690.31 259.263 1689.91 258.317 1689.21 257.62C1688.51 256.923 1687.55 256.531 1686.56 256.531C1685.57 256.531 1684.61 256.923 1683.91 257.62C1683.21 258.317 1682.81 259.263 1682.81 260.249V260.249Z" stroke="white" stroke-opacity="0.3"/>
<path d="M1694.06 327.172L1679.07 342.043L1694.06 327.172Z" stroke="white" stroke-opacity="0.3"/>
<path d="M1694.06 401.531L1679.07 416.403L1694.06 401.531Z" stroke="white" stroke-opacity="0.3"/>
<path d="M1694.06 475.883L1679.07 490.754L1694.06 475.883Z" stroke="white" stroke-opacity="0.3"/>
<path d="M1694.06 550.242L1679.07 565.114L1694.06 550.242Z" stroke="white" stroke-opacity="0.3"/>
<path d="M1680.32 632.032C1680.32 633.676 1680.98 635.252 1682.15 636.414C1683.32 637.576 1684.91 638.229 1686.57 638.229C1688.22 638.229 1689.81 637.576 1690.98 636.414C1692.16 635.252 1692.81 633.676 1692.81 632.032C1692.81 630.389 1692.16 628.813 1690.98 627.651C1689.81 626.489 1688.22 625.836 1686.57 625.836C1684.91 625.836 1683.32 626.489 1682.15 627.651C1680.98 628.813 1680.32 630.389 1680.32 632.032V632.032Z" stroke="white" stroke-opacity="0.3"/>
<path d="M1755.27 37.1808C1755.27 38.8242 1755.93 40.4003 1757.1 41.5623C1758.27 42.7244 1759.86 43.3772 1761.52 43.3772C1763.18 43.3772 1764.77 42.7244 1765.94 41.5623C1767.11 40.4003 1767.77 38.8242 1767.77 37.1808C1767.77 35.5374 1767.11 33.9613 1765.94 32.7993C1764.77 31.6372 1763.18 30.9844 1761.52 30.9844C1759.86 30.9844 1758.27 31.6372 1757.1 32.7993C1755.93 33.9613 1755.27 35.5374 1755.27 37.1808V37.1808Z" stroke="white" stroke-opacity="0.3"/>
<path d="M1769.02 104.102L1754.02 118.973L1769.02 104.102Z" stroke="white" stroke-opacity="0.3"/>
<path d="M1760.27 185.896C1760.27 186.224 1760.41 186.539 1760.64 186.772C1760.87 187.004 1761.19 187.135 1761.52 187.135C1761.85 187.135 1762.17 187.004 1762.41 186.772C1762.64 186.539 1762.77 186.224 1762.77 185.896C1762.77 185.567 1762.64 185.252 1762.41 185.019C1762.17 184.787 1761.85 184.656 1761.52 184.656C1761.19 184.656 1760.87 184.787 1760.64 185.019C1760.41 185.252 1760.27 185.567 1760.27 185.896V185.896Z" stroke="white" stroke-opacity="0.3"/>
<path d="M1755.27 260.251C1755.27 261.895 1755.93 263.471 1757.1 264.633C1758.27 265.795 1759.86 266.448 1761.52 266.448C1763.18 266.448 1764.77 265.795 1765.94 264.633C1767.11 263.471 1767.77 261.895 1767.77 260.251C1767.77 258.608 1767.11 257.032 1765.94 255.87C1764.77 254.708 1763.18 254.055 1761.52 254.055C1759.86 254.055 1758.27 254.708 1757.1 255.87C1755.93 257.032 1755.27 258.608 1755.27 260.251V260.251Z" stroke="white" stroke-opacity="0.3"/>
<path d="M1755.27 334.603C1755.27 336.246 1755.93 337.822 1757.1 338.984C1758.27 340.146 1759.86 340.799 1761.52 340.799C1763.18 340.799 1764.77 340.146 1765.94 338.984C1767.11 337.822 1767.77 336.246 1767.77 334.603C1767.77 332.959 1767.11 331.383 1765.94 330.221C1764.77 329.059 1763.18 328.406 1761.52 328.406C1759.86 328.406 1758.27 329.059 1757.1 330.221C1755.93 331.383 1755.27 332.959 1755.27 334.603V334.603Z" stroke="white" stroke-opacity="0.3"/>
<path d="M1755.27 408.962C1755.27 410.605 1755.93 412.182 1757.1 413.344C1758.27 414.506 1759.86 415.158 1761.52 415.158C1763.18 415.158 1764.77 414.506 1765.94 413.344C1767.11 412.182 1767.77 410.605 1767.77 408.962C1767.77 407.319 1767.11 405.743 1765.94 404.581C1764.77 403.418 1763.18 402.766 1761.52 402.766C1759.86 402.766 1758.27 403.418 1757.1 404.581C1755.93 405.743 1755.27 407.319 1755.27 408.962V408.962Z" stroke="white" stroke-opacity="0.3"/>
<path d="M1764.02 480.844L1759.02 485.801L1764.02 480.844Z" stroke="white" stroke-opacity="0.3"/>
<path d="M1755.27 557.681C1755.27 559.324 1755.93 560.9 1757.1 562.062C1758.27 563.224 1759.86 563.877 1761.52 563.877C1763.18 563.877 1764.77 563.224 1765.94 562.062C1767.11 560.9 1767.77 559.324 1767.77 557.681C1767.77 556.037 1767.11 554.461 1765.94 553.299C1764.77 552.137 1763.18 551.484 1761.52 551.484C1759.86 551.484 1758.27 552.137 1757.1 553.299C1755.93 554.461 1755.27 556.037 1755.27 557.681V557.681Z" stroke="white" stroke-opacity="0.3"/>
<path d="M1764.02 629.555L1759.02 634.512L1764.02 629.555Z" stroke="white" stroke-opacity="0.3"/>
</g>
</g>
<defs>
<clipPath id="clip0_2406_497">
<rect width="1799" height="694" fill="white"/>
</clipPath>
</defs>
</svg>
