<svg width="212" height="52" viewBox="0 0 212 52" fill="none" xmlns="http://www.w3.org/2000/svg">
<path d="M45.1936 38.9967L44.0245 27.3745L43.5243 22.4229L43.3425 20.6194L42.9354 16.5685L42.9246 16.4667L42.5998 13.2321L42.5587 12.8358L42.4158 11.4307L42.2642 9.92595C42.1473 8.76112 41.1081 7.9124 39.9454 8.02932L34.4288 8.58358L34.0693 8.62039L30.7416 8.95598L30.1289 9.0166L28.5094 9.17899L27.4615 9.28508L21.7521 9.86099L18.7491 10.1641L17.5843 10.281L14.3583 10.6058L14.1829 10.6231L12.9683 10.7444L12.3794 10.8028L10.8725 10.9544C9.70766 11.0713 8.85894 12.1105 8.97585 13.2754L9.49764 18.4716L9.90252 22.49L9.96314 23.0876L10.1277 24.7201L10.184 25.2787L10.5715 29.1239L10.8075 31.4752L11.1583 34.9653L11.2146 35.5261L11.561 38.9816L11.6476 39.8368L11.7428 40.7829L11.9009 42.3396C12.0178 43.5045 13.0571 44.3532 14.2219 44.2363L20.2041 43.6344L25.855 43.0649L26.9375 42.9567L30.9126 42.5561L32.6101 42.3851L36.2583 42.017L37.0983 41.9326L39.809 41.6598L39.9346 41.6468L40.9717 41.5429L41.7381 41.4649L43.2927 41.309C44.4575 41.1921 45.3062 40.1529 45.1893 38.9902L45.1936 38.9967ZM43.2147 40.0078L41.9611 40.1334L41.1514 40.2157L40.2377 40.3066L40.1598 40.3153L36.9359 40.64L32.9478 41.0427L27.6 41.5819L26.4699 41.6966L23.3997 42.0062L20.8449 42.2639L18.5153 42.4977L14.0487 42.9459C13.6308 42.9892 13.2584 42.6839 13.2151 42.266L13.0874 41.0081L13.0203 40.3499L12.9878 40.0273L12.9055 39.2067L12.5851 36.0197L12.0178 30.3861L11.6238 26.4608L11.3878 24.116L11.011 20.3661L10.9439 19.7035L10.6884 17.1704L10.2792 13.0978C10.2359 12.68 10.5412 12.3054 10.9591 12.2643L12.165 12.143L12.5396 12.1062L13.9686 11.9633L17.3786 11.6191L22.1894 11.1341L26.7751 10.6729L32.3719 10.11L33.5302 9.99306L35.914 9.75274L37.2737 9.61634L40.1251 9.32838C40.543 9.28508 40.9154 9.59036 40.9587 10.0082L41.0799 11.212L41.2098 12.4981L41.2618 13.0134L41.5649 16.0099L41.9395 19.7273L42.5327 25.6337L42.7103 27.3896L43.2147 32.391L43.8967 39.1743C43.94 39.5921 43.6348 39.9645 43.2169 40.0078H43.2147Z" fill="#7521B9"/>
<path d="M10.8142 31.4797V31.4776L10.2621 25.9934L10.1322 24.7246L9.76628 26.9936L8.34814 35.7709L10.0001 36.5136L10.8142 31.4797Z" fill="#0084EE"/>
<path d="M11.626 26.4585L12.4011 21.6693L13.2714 16.2912L13.7196 13.5198L13.791 13.0781L13.9708 11.961L14.1591 10.7961L14.1873 10.6229L14.4081 9.25025C14.4081 9.23726 14.4124 9.22427 14.4168 9.21128C14.4817 8.92332 14.7632 8.73063 15.062 8.77826L15.6812 8.87786L16.4238 7.22589L15.4214 7.0635C14.1115 6.85133 12.8795 7.74118 12.6695 9.0489L12.6284 9.29789L12.3859 10.8005L12.1694 12.1385L11.9377 13.5761L11.7883 14.5049L11.0262 19.2227L10.9504 19.6969L11.3596 23.7759L11.6303 26.4541L11.626 26.4585Z" fill="#0084EE"/>
<path d="M27.5438 41.571L21.6396 40.6162L17.6991 39.9796L16.6252 39.8064L15.6314 39.6462L15.1053 39.5618L14.4883 39.4622L12.9077 39.2067L12.2842 39.1049L11.5697 38.9902L10.3876 38.7997L10.2144 38.7715C9.90259 38.7217 9.69258 38.4294 9.74238 38.1176L9.86146 37.3793L8.20949 36.6367L8.02762 37.7582C7.81544 39.0681 8.70529 40.3001 10.013 40.5101L10.262 40.5512L11.7494 40.7915L13.0875 41.0081L15.4063 41.3826L16.898 41.6251L20.635 42.2292L20.7692 42.2508L20.8428 42.2638L21.2845 42.2205L21.4664 42.2032L22.4169 42.1079L24.3395 41.9152L27.6001 41.5861L27.5438 41.5775V41.571Z" fill="#0084EE"/>
<path d="M43.0178 30.4617L42.7342 27.6428L42.5329 25.6357V25.6422L42.0154 28.8314L41.0411 34.8504L40.5496 37.901L40.5236 38.0591L40.1599 40.3108L39.9434 41.6488L39.8438 42.2745L39.7334 42.9609C39.6836 43.2726 39.3891 43.4827 39.0795 43.4329L38.1745 43.2878L38.168 43.3029L37.4319 44.9398L38.7201 45.1476C39.7507 45.3143 40.7315 44.799 41.2078 43.9352C41.3377 43.7013 41.4287 43.4415 41.4741 43.1622L41.7469 41.4713L41.9634 40.1332L42.3402 37.8036L42.5307 36.6215L43.2127 32.3952V32.3908L43.1889 32.144L43.02 30.4639L43.0178 30.4617Z" fill="#0084EE"/>
<path d="M44.1263 11.706L44.0592 11.6952L42.4181 11.4311L41.08 11.2146L39.3826 10.9396L39.1444 10.9006L33.5303 9.99345H33.5282L33.329 9.96098L30.116 9.44135L28.5116 9.18154L26.6691 8.88276L17.2878 7.36719L16.543 9.01916L21.7544 9.86138L26.7752 10.6733L31.9043 11.5025L36.2605 12.2083L39.4714 12.728L39.5038 12.7323L41.2576 13.0159L42.5956 13.2324L42.6541 13.2433L43.9206 13.4468C44.0007 13.4598 44.0744 13.4901 44.1393 13.5312C44.3233 13.6503 44.4294 13.869 44.3926 14.1006L44.2649 14.8866L45.9169 15.6292L46.1052 14.4601C46.3174 13.1502 45.4275 11.9182 44.1198 11.7082L44.1263 11.706Z" fill="#0084EE"/>
<path d="M32.6167 42.3916L26.6107 42.9957L25.8616 43.0714L27.2277 43.2923L36.5658 44.8014L37.3084 43.1494L32.66 42.3981L32.6167 42.3916Z" fill="#0084EE"/>
<path d="M43.3447 20.613L43.3425 20.6195L43.8622 25.7768L44.0245 27.3725V27.3681L44.4337 24.8306L45.7848 16.4907L44.1306 15.748L43.3447 20.613Z" fill="#0084EE"/>
<path d="M48.0256 16.5751L47.3999 16.2936L42.8749 14.2584L40.0278 12.9767L34.838 10.6427L30.2675 8.58587L20.0482 3.9872C19.0523 3.53902 17.8831 3.98287 17.435 4.97881L17.0258 5.88816L15.1031 10.1599L14.0769 12.4419L12.0612 16.9215L9.53235 22.5399L4.84491 32.9562C4.3989 33.9522 4.84058 35.1213 5.83653 35.5695L6.71989 35.9679L11.4117 38.0788L19.9854 41.9371L22.4688 43.0542L23.6618 43.5912L33.8161 48.1595C34.812 48.6077 35.9812 48.1639 36.4294 47.1679L36.4965 47.0185L38.9214 41.6296L40.437 38.2607L43.8513 30.672L44.3688 29.5202L49.0151 19.1927C49.4633 18.1967 49.0194 17.0276 48.0235 16.5794L48.0256 16.5751ZM48.2313 18.8787L44.28 27.6604L42.5782 31.4428L40.8808 35.2123L38.077 41.4434L35.7171 46.6851L35.6737 46.7847C35.4074 47.3758 34.7146 47.6377 34.1257 47.3714L23.1616 42.4393L20.2972 41.1511L11.5286 37.2063L6.97537 35.1581L6.21759 34.8182C5.62651 34.5519 5.36454 33.8591 5.62868 33.268L9.85712 23.8693L12.2041 18.6557L14.0747 14.4988L16.0276 10.1599L17.9113 5.97476L18.1863 5.35987C18.4526 4.7688 19.1454 4.50682 19.7343 4.77313L28.7779 8.84352L34.2448 11.3031L37.5769 12.8013L42.6324 15.0768L47.1942 17.1293L47.6403 17.3307C48.2313 17.5948 48.4933 18.2898 48.2292 18.8787H48.2313Z" fill="#2CAAFF"/>
<path d="M21.7544 9.86148L26.7753 10.6734L33.5304 9.99355L28.5117 9.18164L21.7544 9.86148Z" fill="#0084EE"/>
<path d="M10.9462 19.7041L10.5023 22.4386L10.1321 24.725L10.262 25.9937L10.8141 31.4779L11.626 26.4614V26.4592L11.3554 23.781L10.9462 19.7041Z" fill="#0084EE"/>
<path d="M32.6165 42.3919L27.6 41.5799L27.5437 41.5713L24.309 41.8939L21.4359 42.1818L20.7712 42.249L20.8449 42.2598L21.9599 42.4417L23.8478 42.7448L25.8614 43.0717L26.6127 42.9959L32.6598 42.3984L32.6165 42.3919Z" fill="#0084EE"/>
<path d="M43.3446 20.6133L43.3424 20.6198L42.5327 25.6385L42.5305 25.645L42.734 27.6477L43.2104 32.3957L43.2125 32.3914L43.2883 31.9194V31.9173L43.8079 28.7064L44.0244 27.3727V27.3684L43.8642 25.7749L43.3446 20.6133Z" fill="#0084EE"/>
<path d="M15.6467 8.8731L16.5582 9.02032L17.303 7.36835L16.3655 7.2168L15.6467 8.8731Z" fill="#0084EE"/>
<path d="M8.37616 35.5908L8.1748 36.8422L9.82894 37.5697L10.0433 36.2403L8.37616 35.5908Z" fill="#0084EE"/>
<path d="M44.2931 14.709L44.0874 16.0189L45.7524 16.6749L45.9602 15.3867L44.2931 14.709Z" fill="#0084EE"/>
<path d="M38.2613 43.3033L37.5576 44.9596L36.4058 44.7734L37.1852 43.1279L38.2613 43.3033Z" fill="#0084EE"/>
<path d="M14.0746 12.4395L12.0589 16.919L9.53223 22.5375L9.86132 23.8668L12.2061 18.6533L14.0768 14.4963L14.0746 12.4395Z" fill="#2CAAFF"/>
<path d="M34.838 10.6408L30.2675 8.58398L28.7822 8.84163L34.2469 11.3012L34.838 10.6408Z" fill="#2CAAFF"/>
<path d="M44.2798 27.6582L42.5781 31.4406L40.8806 35.2101L40.4368 38.2564L43.8511 30.6677L44.3686 29.5159L44.2798 27.6582Z" fill="#2CAAFF"/>
<path d="M12.99 40.0252L12.9012 39.1267L11.561 38.9102L11.6563 39.8433L11.7581 40.8674L13.0961 41.0839L13.0225 40.3478L12.99 40.0252Z" fill="#7521B9"/>
<path d="M40.0839 40.3218L39.8501 41.6642L40.9781 41.5494L41.842 41.4607L42.013 40.127L41.1513 40.2157L40.0839 40.3218Z" fill="#7521B9"/>
<path d="M12.2777 10.816L12.0569 12.1562L12.5397 12.1064L14.0856 11.9505L14.3194 10.6104L12.9727 10.7446L12.2777 10.816Z" fill="#7521B9"/>
<path d="M41.2768 13.1463L42.6105 13.3347L42.5607 12.8367L42.4049 11.2973L41.0625 11.0635L41.2097 12.5011L41.2768 13.1463Z" fill="#7521B9"/>
<path d="M23.1618 42.4377L20.2974 41.1494L19.9856 41.9332L22.469 43.0504L23.6619 43.5873L24.3504 42.9724L23.1618 42.4377Z" fill="#2CAAFF"/>
<path d="M139.001 29.6165H127.84V29.9326C127.842 29.9781 127.844 30.0257 127.848 30.0712C127.89 30.658 127.887 31.2599 128.026 31.8249C128.357 33.1803 129.472 34.081 130.862 34.1827C131.254 34.2109 131.663 34.2022 132.047 34.1243C133.004 33.9316 133.653 33.3362 134.017 32.4398C134.138 32.1432 134.225 31.8314 134.339 31.4915C135.838 31.5998 137.327 31.7102 138.858 31.8206C138.858 31.8249 138.858 31.8271 138.856 31.8314C138.808 32.0696 138.745 32.3034 138.659 32.5286C138.343 33.3492 137.942 34.1264 137.414 34.8388C136.136 36.5643 134.404 37.4845 132.289 37.7378C130.945 37.9002 129.611 37.8418 128.314 37.465C125.625 36.6834 123.869 34.8647 122.99 32.271C122.133 29.74 122.239 27.1678 123.28 24.6974C124.59 21.5819 127.493 19.6203 131.152 19.7567C132.356 19.8022 134.203 20.3391 135.225 20.9778C137.308 22.2769 138.356 24.2081 138.774 26.5291C138.953 27.5229 139.059 28.5232 138.999 29.6165H139.001ZM134.028 26.6482C134.015 25.99 133.893 25.4098 133.681 24.8533C133.307 23.8639 132.616 23.223 131.542 23.1061C130.386 22.9805 129.342 23.2252 128.619 24.2341C128.113 24.9421 127.922 25.7583 127.853 26.6482H134.028Z" fill="#04080F"/>
<path d="M152.97 32.6959C154.393 32.488 155.78 32.2845 157.116 32.0875C157.188 32.1438 157.207 32.1524 157.212 32.1676C157.634 33.5316 158.647 34.1443 159.983 34.3305C160.775 34.4409 161.576 34.4713 162.352 34.2612C162.763 34.1508 163.185 33.9863 163.534 33.7481C164.415 33.144 164.315 32.0009 163.339 31.5765C162.901 31.386 162.406 31.3015 161.925 31.2344C160.457 31.0266 158.991 30.8101 157.575 30.3554C157.028 30.18 156.48 29.9743 155.971 29.7102C154.624 29.0087 153.886 27.8612 153.661 26.3716C153.187 23.2452 155.075 21.1516 157.279 20.357C159.47 19.5667 161.709 19.5191 163.936 20.1968C165.779 20.7597 167.351 22.4788 167.758 24.2996C166.565 24.6201 165.37 24.9405 164.151 25.2674C164.088 25.1245 164.034 25.0141 163.988 24.8994C163.599 23.8926 162.873 23.2734 161.823 23.0439C160.998 22.8642 160.171 22.875 159.353 23.085C159.145 23.1391 158.939 23.2236 158.757 23.334C158.279 23.6241 158.075 24.0766 158.123 24.6222C158.171 25.157 158.463 25.5554 158.983 25.6939C159.68 25.8758 160.392 25.9992 161.098 26.14C162.391 26.3933 163.705 26.5643 164.973 26.9042C167.214 27.504 168.416 29.078 168.542 31.3817C168.678 33.8888 167.489 35.8807 165.209 36.9654C164.149 37.4699 163.021 37.6929 161.858 37.7752C160.145 37.8964 158.459 37.7774 156.837 37.1755C154.932 36.4675 153.685 35.1251 153.065 33.1938C153.037 33.1072 153.016 33.0206 152.996 32.9319C152.985 32.8799 152.983 32.8279 152.968 32.6915L152.97 32.6959Z" fill="#04080F"/>
<path d="M191.678 20.1182H197.052C198.145 23.4827 200.414 30.4782 200.414 30.4782C201.464 27.1114 202.586 23.5174 203.646 20.1182H207.329C207.329 20.1182 203.276 32.4809 201.295 38.463C201.063 39.1645 200.769 39.8487 200.459 40.5199C199.647 42.2758 198.255 43.2501 196.339 43.4536C195.131 43.5813 193.925 43.5315 192.693 43.3085V39.459C192.955 39.485 193.2 39.5066 193.444 39.5326C194.272 39.6192 195.096 39.7058 195.932 39.6019C197.023 39.4677 197.837 38.6839 197.941 37.5883C197.963 37.3697 197.87 37.1293 197.79 36.915C196.012 32.0284 194.228 27.1417 192.446 22.2551C192.2 21.5796 191.953 20.8824 191.678 20.1182Z" fill="#04080F"/>
<path d="M189.727 13.2639V17.1265C189.485 17.1265 189.274 17.1265 189.062 17.1265C188.556 17.1265 188.049 17.094 187.545 17.1265C186.882 17.1676 186.51 17.4859 186.336 18.1094C186.161 18.7416 186.165 19.3868 186.222 20.1143H189.32V24.0981H186.194V37.4156H181.229V35.5406C181.225 34.9084 181.229 34.2762 181.229 33.644V26.0553C181.229 25.4253 181.229 24.7952 181.229 24.0937H179.239V20.1208H181.192C181.242 19.3457 181.274 18.6442 181.337 17.947C181.378 17.4815 181.458 17.016 181.534 16.5549C181.669 15.7321 182.115 15.0891 182.725 14.5435C183.663 13.7034 184.786 13.2899 186.014 13.1448C187.241 13.0019 188.467 13.0539 189.729 13.2661L189.727 13.2639Z" fill="#04080F"/>
<path d="M147.248 37.419H142.333V20.2194C142.684 20.0852 146.222 20.044 146.947 20.1826V22.9604C146.981 22.9713 146.927 22.9431 146.962 22.9539C147.016 22.8608 147.072 22.7677 147.122 22.6725C147.432 22.1031 147.77 21.5271 148.153 21.014C149.008 19.8665 150.21 19.5807 151.567 19.7972C151.682 20.2281 151.697 24.2638 151.589 24.777C151.162 24.8267 150.731 24.8636 150.305 24.9328C149.335 25.0866 148.605 25.5932 148.103 26.4397C147.445 27.5526 147.265 28.7781 147.254 30.036C147.235 32.2769 147.248 34.5177 147.246 36.7586C147.246 36.9556 147.246 37.1505 147.246 37.419H147.248Z" fill="#04080F"/>
<path d="M176.598 37.4192H171.525L171.529 20.2175C171.934 20.0811 176.029 20.0811 176.598 20.2175V37.4192Z" fill="#04080F"/>
<path d="M171.562 16.1643C171.562 15.623 171.555 15.0818 171.562 14.5405C171.573 13.9234 171.837 13.6463 172.456 13.6398C173.541 13.6268 174.623 13.629 175.708 13.6398C176.323 13.6463 176.617 13.9234 176.626 14.5297C176.641 15.6122 176.641 16.6969 176.626 17.7795C176.617 18.3857 176.327 18.6758 175.719 18.6845C174.634 18.6996 173.551 18.6996 172.467 18.6845C171.822 18.6758 171.568 18.3944 171.562 17.7362C171.555 17.2122 171.562 16.6883 171.562 16.1665V16.1643Z" fill="#04080F"/>
<path d="M61.4471 37.4192H56.3743L56.3786 20.2175C56.7835 20.0811 60.8777 20.0811 61.4471 20.2175V37.4192Z" fill="#04080F"/>
<path d="M56.4133 16.1643C56.4133 15.623 56.4068 15.0818 56.4133 14.5405C56.4241 13.9234 56.6883 13.6463 57.3075 13.6398C58.3922 13.6268 59.4747 13.629 60.5595 13.6398C61.1743 13.6463 61.4688 13.9234 61.4775 14.5297C61.4926 15.6122 61.4926 16.6969 61.4775 17.7795C61.4688 18.3857 61.1787 18.6758 60.5703 18.6845C59.4856 18.6996 58.403 18.6996 57.3183 18.6845C56.6731 18.6758 56.4198 18.3944 56.4133 17.7362C56.4068 17.2122 56.4133 16.6883 56.4133 16.1665V16.1643Z" fill="#04080F"/>
<path d="M119.234 37.4307H114.122C114.109 37.1882 114.131 36.9609 114.131 36.7357C114.128 33.8431 114.135 30.9527 114.126 28.0602C114.124 27.2482 114.1 26.4342 114.057 25.6223C114.014 24.8147 113.659 24.1911 112.855 23.927C111.842 23.5936 110.913 23.8274 110.123 24.5029C109.88 24.7107 109.705 25.0637 109.631 25.3819C109.493 25.9752 109.391 26.5901 109.378 27.1984C109.341 28.9327 109.359 30.6691 109.356 32.4033C109.356 33.8669 109.356 35.3306 109.356 36.7963C109.356 36.9912 109.356 37.1839 109.356 37.4155H104.26C104.26 37.4155 104.253 36.9284 104.253 36.6989C104.253 33.8605 104.253 31.0242 104.249 28.1857C104.249 27.5167 104.223 26.8477 104.201 26.1808C104.195 25.9643 104.171 25.7478 104.134 25.5356C103.948 24.4856 103.344 23.9032 102.281 23.8079C100.956 23.6888 99.856 24.1868 99.5767 25.698C99.4468 26.4039 99.3927 27.1313 99.3884 27.8501C99.3689 30.8142 99.3797 33.7782 99.3797 36.7422V37.4155H94.4714V20.1207H99.2V22.6041C99.5876 22.0715 99.8885 21.6082 100.244 21.186C100.599 20.7638 101.099 20.4087 101.644 20.2203C102.19 20.032 102.716 19.8847 103.266 19.8176C103.816 19.7505 104.39 19.7462 104.938 19.8241C105.483 19.9021 106.048 20.0406 106.538 20.2853C107.044 20.5386 107.516 20.9045 107.921 21.305C108.313 21.6926 108.599 22.1884 108.945 22.6561C108.945 22.6561 108.945 22.6561 108.945 22.6539C109.051 22.5132 109.146 22.3659 109.237 22.2144C110.186 20.649 111.63 19.8934 113.453 19.7657C114.531 19.6899 115.585 19.8155 116.575 20.281C117.987 20.9435 118.874 22.0174 119.043 23.5957C119.143 24.5289 119.221 25.4685 119.227 26.406C119.249 29.8767 119.236 33.3473 119.236 36.8158C119.236 37.0085 119.236 37.2012 119.236 37.4329L119.234 37.4307Z" fill="#04080F"/>
<path d="M90.1954 37.4305H85.1269C85.1139 37.188 85.0944 36.9607 85.0944 36.7355C85.0922 33.8429 85.0987 30.9525 85.0901 28.0599C85.0879 27.248 85.0641 26.434 85.0208 25.622C84.9775 24.8145 84.6224 24.1909 83.8191 23.9268C82.8059 23.5933 81.8771 23.8272 81.0868 24.5027C80.8443 24.7105 80.6689 25.0634 80.5953 25.3817C80.4568 25.975 80.355 26.5898 80.342 27.1982C80.3052 28.9325 80.3225 30.6689 80.3204 32.4031C80.3204 33.8667 80.3204 35.3303 80.3204 36.7961C80.3204 36.991 80.3204 37.1837 80.3204 37.4153H75.2475C75.2367 37.1577 75.2172 36.9282 75.2172 36.6987C75.2172 33.8602 75.2172 31.024 75.2129 28.1855C75.2129 27.5165 75.1869 26.8475 75.1652 26.1806C75.1588 25.9641 75.1349 25.7476 75.0981 25.5354C74.9119 24.4854 74.3079 23.903 73.2448 23.8077C71.9198 23.6886 70.8199 24.1866 70.5406 25.6978C70.4107 26.4036 70.3566 27.1311 70.3522 27.8499C70.3328 30.8139 70.3436 33.778 70.3436 36.742V37.4153H65.4353V20.1508H70.1639V22.6061C70.5514 22.0734 70.8524 21.6101 71.2074 21.1879C71.5625 20.7657 72.0627 20.4106 72.6083 20.2223C73.1539 20.0339 73.68 19.8867 74.2299 19.8196C74.7799 19.7525 75.3536 19.7481 75.9014 19.8261C76.447 19.904 77.0121 20.0426 77.5014 20.2872C78.008 20.5406 78.48 20.9065 78.8849 21.307C79.2768 21.6946 79.5626 22.1904 79.909 22.658C79.909 22.658 79.909 22.658 79.909 22.6559C80.0151 22.5151 80.1103 22.3679 80.2013 22.2163C81.1496 20.651 82.5937 19.8954 84.4167 19.7676C85.4949 19.6918 86.5493 19.8174 87.5388 20.2829C88.9504 20.9454 89.8381 22.0193 90.007 23.5977C90.1066 24.5308 90.1845 25.4705 90.191 26.408C90.2127 29.8786 90.1997 33.3493 90.1997 36.8178C90.1997 37.0105 90.1997 37.2032 90.1997 37.4348L90.1954 37.4305Z" fill="#04080F"/>
</svg>
